<?xml version="1.0" encoding="utf-8"?>
<!-- Generator: Adobe Illustrator 18.1.1, SVG Export Plug-In . SVG Version: 6.00 Build 0)  -->
<svg version="1.1" xmlns="http://www.w3.org/2000/svg" xmlns:xlink="http://www.w3.org/1999/xlink" x="0px" y="0px"
	 viewBox="0 0 1332 772" enable-background="new 0 0 1332 772" xml:space="preserve">
<g id="_x31_">
	<rect fill="#414042" width="1332" height="772"/>
	<path fill="none" stroke="#939598" stroke-miterlimit="10" d="M324.5,363.4"/>
	<path fill="none" stroke="#939598" stroke-miterlimit="10" d="M582,359.5"/>
</g>
<g id="Salon_Cielo">
	<rect x="226" y="306.6" fill="none" stroke="#939598" stroke-miterlimit="10" width="29.8" height="56.8"/>
	<rect x="225.7" y="312.2" fill="none" width="21.6" height="63.7"/>
	<text transform="matrix(0 1 -1 0 242.3643 312.1893)"><tspan x="0" y="0" fill="#FFFFFF" font-family="'HelveticaNeue-Light'" font-size="7">Salon Cielo</tspan><tspan x="0" y="8.4" fill="#FFFFFF" font-family="'HelveticaNeue-Light'" font-size="7">and Spa</tspan></text>
</g>
<g id="Infinity_Jewelry">
	<path fill="none" stroke="#939598" stroke-miterlimit="10" d="M255.8,363.4h23.7l8.7-48.9c-4.1-2-7.7-4.7-10.8-8H256L255.8,363.4z"
		/>
	<rect x="254.5" y="312.2" fill="none" width="21.6" height="63.7"/>
	<text transform="matrix(0 1 -1 0 271.1982 312.1893)"><tspan x="0" y="0" fill="#FFFFFF" font-family="'HelveticaNeue-Light'" font-size="7">Infinity</tspan><tspan x="0" y="8.4" fill="#FFFFFF" font-family="'HelveticaNeue-Light'" font-size="7">Jewelry</tspan></text>
</g>
<g id="Kay_Jewelers">
	<path fill="none" stroke="#939598" stroke-miterlimit="10" d="M326.5,363.4c0-19.1-5.8-48.6-5.8-48.6l7-5.1h12
		c5-5.1,8.2-14.3,8.2-14.3h14v67.9H326.5z"/>
	<rect x="335.1" y="319.2" fill="none" width="19.5" height="63.7"/>
	<text transform="matrix(0 1 -1 0 349.5938 319.1907)"><tspan x="0" y="0" fill="#FFFFFF" font-family="'HelveticaNeue-Light'" font-size="7">Kay</tspan><tspan x="0" y="8.4" fill="#FFFFFF" font-family="'HelveticaNeue-Light'" font-size="7">Jewelers</tspan></text>
</g>
<g id="The_Walking_Company">
	<polygon fill="none" stroke="#939598" stroke-miterlimit="10" points="382.9,292 395.5,292 395.5,363.4 362,363.4 362,295.5 
		382.8,295.5 	"/>
	<rect x="368.7" y="302.4" fill="none" width="16.8" height="63.7"/>
	<text transform="matrix(0 1 -1 0 380.5234 302.3741)"><tspan x="0" y="0" fill="#FFFFFF" font-family="'HelveticaNeue-Light'" font-size="7">The Walking</tspan><tspan x="0" y="8.4" fill="#FFFFFF" font-family="'HelveticaNeue-Light'" font-size="7">Company</tspan></text>
</g>
<g id="Steve_Madden">
	<rect x="395.5" y="292" fill="none" stroke="#939598" stroke-miterlimit="10" width="24.5" height="71.4"/>
	<rect x="405.7" y="302.4" fill="none" width="6.1" height="63.7"/>
	<text transform="matrix(0 1 -1 0 406.8564 302.3732)" fill="#FFFFFF" font-family="'HelveticaNeue-Light'" font-size="7">Steve Madden </text>
</g>
<g id="Baby_Gap">
	<rect x="420" y="292" fill="none" stroke="#939598" stroke-miterlimit="10" width="24.7" height="71.4"/>
	<rect x="427" y="302.4" fill="none" width="6.1" height="63.7"/>
	<text transform="matrix(0 1 -1 0 428.1904 302.3732)" fill="#FFFFFF" font-family="'HelveticaNeue-Light'" font-size="7">babyGap</text>
</g>
<g id="Nine_West">
	<rect x="444.7" y="292" fill="none" stroke="#939598" stroke-miterlimit="10" width="26.3" height="71.4"/>
	<rect x="438.2" y="302.4" fill="none" width="21.6" height="63.7"/>
	<text transform="matrix(0 1 -1 0 454.8545 302.3741)" fill="#FFFFFF" font-family="'HelveticaNeue-Light'" font-size="7">Nine West</text>
</g>
<g id="True_Religion">
	<rect x="471" y="292" fill="none" stroke="#939598" stroke-miterlimit="10" width="32" height="71.4"/>
	<rect x="472.7" y="302.4" fill="none" width="21.6" height="63.7"/>
	<text transform="matrix(0 1 -1 0 489.3623 302.3741)"><tspan x="0" y="0" fill="#FFFFFF" font-family="'HelveticaNeue-Light'" font-size="7">True Religion</tspan><tspan x="0" y="8.4" fill="#FFFFFF" font-family="'HelveticaNeue-Light'" font-size="7">Brand Jeans</tspan></text>
</g>
<g id="Swarovski">
	<rect x="503" y="292" fill="none" stroke="#939598" stroke-miterlimit="10" width="23.5" height="71.4"/>
	<rect x="494.5" y="302.4" fill="none" width="21.6" height="63.7"/>
	<text transform="matrix(0 1 -1 0 511.1885 302.3741)" fill="#FFFFFF" font-family="'HelveticaNeue-Light'" font-size="7">Swarovski</text>
</g>
<g id="Accessorize">
	<rect x="526.5" y="292" fill="none" stroke="#939598" stroke-miterlimit="10" width="29.5" height="71.4"/>
	<rect x="523" y="302.4" fill="none" width="21.6" height="63.7"/>
	<text transform="matrix(0 1 -1 0 539.6963 302.374)" fill="#FFFFFF" font-family="'HelveticaNeue-Light'" font-size="7">Accessorize</text>
</g>
<g id="Swatch">
	<polygon fill="none" stroke="#939598" stroke-miterlimit="10" points="578.5,295.2 576.8,295.2 576.8,292 556,292 556,359.5 
		582,359.5 582,295.2 	"/>
	<rect x="551" y="302.4" fill="none" width="21.6" height="63.7"/>
	<text transform="matrix(0 1 -1 0 567.6963 302.374)" fill="#FFFFFF" font-family="'HelveticaNeue-Light'" font-size="7">Swatch</text>
</g>
<g id="Luggage_Plus">
	<polygon fill="none" stroke="#939598" stroke-miterlimit="10" points="612.5,359.5 612.5,309.2 593.5,308.9 593.5,295.2 582,295.2 
		582,359.6 	"/>
	<rect x="584.5" y="320.3" fill="none" width="21.6" height="63.7"/>
	<text transform="matrix(0 1 -1 0 601.1865 320.3108)"><tspan x="0" y="0" fill="#FFFFFF" font-family="'HelveticaNeue-Light'" font-size="7">Luggage</tspan><tspan x="0" y="8.4" fill="#FFFFFF" font-family="'HelveticaNeue-Light'" font-size="7">Plus</tspan></text>
</g>
<g id="Juicy_Couture">
	<rect x="556" y="359.5" fill="none" stroke="#939598" stroke-miterlimit="10" width="56.5" height="74.5"/>
	<rect x="576.7" y="373" fill="none" width="21.6" height="63.7"/>
	<text transform="matrix(0 1 -1 0 593.3623 372.9774)" fill="#FFFFFF" font-family="'HelveticaNeue-Light'" font-size="7">Juicy Couture</text>
</g>
<g id="Ritz_Carlton">
	<rect x="381.5" y="363.4" fill="none" stroke="#939598" stroke-miterlimit="10" width="174.5" height="159.6"/>
	<rect x="442.7" y="439.3" fill="none" width="63.7" height="32.3"/>
	<text transform="matrix(1 0 0 1 442.6984 444.2814)" fill="#FFFFFF" font-family="'HelveticaNeue-Light'" font-size="7">The Ritz-Carlton</text>
</g>
<g id="Brookstone">
	<polygon fill="none" stroke="#939598" stroke-miterlimit="10" points="615.8,530.5 643,530.5 643,526.2 649.2,526.2 649.2,476.8 
		644,476.8 644,471 612.5,471 612.5,456.5 578.5,456.5 578.5,461.5 582.2,461.5 582.2,500 584,500 584,503.8 578.5,503.8 
		578.5,498.8 570.2,498.8 570.2,512 574.4,516.1 574.4,523 612.5,523 612.5,527.5 615.8,527.5 	"/>
	<rect x="598" y="492.5" fill="none" width="63.7" height="21.6"/>
	<text transform="matrix(1 0 0 1 598.0389 497.4767)" fill="#FFFFFF" font-family="'HelveticaNeue-Light'" font-size="7">Brookstone</text>
</g>
<g id="Tourneau">
	<path fill="none" stroke="#939598" stroke-miterlimit="10" d="M728.5,545v-54l-1.5,0c-1.9,0.1-2.8,0.3-6,1.3l-4-18.3h-3v-3h-32v4.7
		h-5.7v49.8l20,0c5.5,10.5,16,18,28.4,19.3c1.3,0.1,2.6,0.2,4,0.2"/>
	<rect x="681.4" y="478.6" fill="none" width="21.6" height="63.7"/>
	<text transform="matrix(0 1 -1 0 698.0303 478.644)" fill="#FFFFFF" font-family="'HelveticaNeue-Light'" font-size="7">Tourneau</text>
</g>
<g id="The_Art_of_Shaving">
	<path fill="none" stroke="#939598" stroke-miterlimit="10" d="M761,471h-17.3v2.7h-5.2l-2.5,18.7c0,0-3.9-1.5-7.5-1.3l0.2,54
		c14.2,0.1,26.4-9.9,32.3-19.5L761,471z"/>
	<rect x="733" y="481" fill="none" width="21.6" height="63.7"/>
	<text transform="matrix(0 1 -1 0 749.6963 480.9774)"><tspan x="0" y="0" fill="#FFFFFF" font-family="'HelveticaNeue-Light'" font-size="7">The Art of</tspan><tspan x="0" y="8.4" fill="#FFFFFF" font-family="'HelveticaNeue-Light'" font-size="7">Shaving</tspan></text>
</g>
<g id="Brighton">
	<polygon fill="none" stroke="#939598" stroke-miterlimit="10" points="761,525.5 780.7,525.5 780.7,476.7 776,476.7 776,471 
		761,471 	"/>
	<rect x="756.4" y="480.6" fill="none" width="21.6" height="63.7"/>
	<text transform="matrix(0 1 -1 0 773.04 480.644)"><tspan x="0" y="0" fill="#FFFFFF" font-family="'HelveticaNeue-Light'" font-size="7">Brighton</tspan><tspan x="0" y="8.4" fill="#FFFFFF" font-family="'HelveticaNeue-Light'" font-size="7">Collectibles</tspan></text>
</g>
<g id="C._Wonder">
	<polygon fill="none" stroke="#939598" stroke-miterlimit="10" points="885.2,454.2 841,454.2 841,470.2 813.2,470.2 813.2,476 
		808.7,476 808.7,525.8 813.5,525.8 813.5,531 841.8,531 841.8,526.5 844.8,526.5 844.8,523.2 885.2,523.2 	"/>
	<rect x="841" y="462.6" fill="none" width="21.6" height="63.7"/>
	<text transform="matrix(0 1 -1 0 857.6963 462.644)" fill="#FFFFFF" font-family="'HelveticaNeue-Light'" font-size="7">C. Wonder</text>
</g>
<g id="Microsoft">
	<polygon fill="none" stroke="#939598" stroke-miterlimit="10" points="894.5,523.2 894.5,562 940.7,562 940.7,454.2 885.2,454.2 
		885.2,523.3 	"/>
	<rect x="892" y="462.6" fill="none" width="21.6" height="63.7"/>
	<text transform="matrix(0 1 -1 0 908.6963 462.644)" fill="#FFFFFF" font-family="'HelveticaNeue-Light'" font-size="7">Microsoft</text>
</g>
<g id="GUESS">
	<polyline fill="none" stroke="#939598" stroke-miterlimit="10" points="1052,474.4 1037,470 1037,472.2 1032.5,472.2 1032.5,469 
		1020.8,469 1020.8,463 1008.8,463 1008.8,458 1005.5,458 1005.5,454.2 940.7,454.2 940.7,457 940.7,557.3 940.7,562 1008.2,562 
		1008.2,557 1029,557 1052,474.4 	"/>
	<rect x="953" y="462.6" fill="none" width="21.6" height="63.7"/>
	<text transform="matrix(0 1 -1 0 969.6963 462.644)" fill="#FFFFFF" font-family="'HelveticaNeue-Light'" font-size="7">GUESS</text>
</g>
<g id="Macys">
	
		<rect x="1061.9" y="313.4" transform="matrix(0.9647 0.2633 -0.2633 0.9647 154.7492 -271.0088)" fill="none" stroke="#939598" stroke-miterlimit="10" width="53.3" height="257"/>
	
		<rect x="1023" y="442.6" transform="matrix(-0.2551 0.9669 -0.9669 -0.2551 1790.675 -457.2017)" fill="none" width="96.8" height="37.1"/>
	
		<text transform="matrix(-0.2551 0.9669 -0.9669 -0.2551 1089.2748 415.8519)" fill="#FFFFFF" font-family="'HelveticaNeue-Light'" font-size="18">MACY’S</text>
</g>
<g id="J._Crew">
	<polygon fill="none" stroke="#939598" stroke-miterlimit="10" points="1009,315.3 1086.2,315.3 1086.2,320.5 1094,320.5 
		1068.2,415.1 1021,415.1 1021,420.7 1009,420.7 	"/>
	<rect x="1023.9" y="378.6" fill="none" width="21.6" height="63.7"/>
	<text transform="matrix(0 1 -1 0 1040.5381 378.644)" fill="#FFFFFF" font-family="'HelveticaNeue-Light'" font-size="7">J. Crew</text>
</g>
<g id="Banana_Republic">
	<polygon fill="none" stroke="#939598" stroke-miterlimit="10" points="931.3,315.3 1009,315.3 1009,420.7 1009,425 1006,425 
		1006,429.3 931.3,429.3 	"/>
	<rect x="951.2" y="367.1" fill="none" width="21.6" height="63.7"/>
	<text transform="matrix(0 1 -1 0 967.8721 367.1439)" fill="#FFFFFF" font-family="'HelveticaNeue-Light'" font-size="7">Banana Republic</text>
</g>
<g id="ALDO">
	<rect x="884.3" y="315.3" fill="none" stroke="#939598" stroke-miterlimit="10" width="47" height="114"/>
	<rect x="888.9" y="397.5" fill="none" width="21.6" height="63.7"/>
	<text transform="matrix(0 1 -1 0 905.5381 397.522)" fill="#FFFFFF" font-family="'HelveticaNeue-Light'" font-size="7">ALDO</text>
</g>
<g id="Sephora">
	<polygon fill="none" stroke="#939598" stroke-miterlimit="10" points="871.1,311.4 875,315.3 884.3,315.3 884.3,429.3 841.2,429.3 
		841.1,393.4 	"/>
	<rect x="846.2" y="389.8" fill="none" width="21.6" height="63.7"/>
	<text transform="matrix(0 1 -1 0 862.8721 389.8107)" fill="#FFFFFF" font-family="'HelveticaNeue-Light'" font-size="7">Sephora</text>
</g>
<g id="Ann_Taylor">
	<path fill="none" stroke="#939598" stroke-miterlimit="10" d="M841.1,393.4c-59.7,3.6-97-16.8-111.7-27.8h121.9l-9.6,26.1
		L841.1,393.4z"/>
	<rect x="789.9" y="373.9" fill="none" width="63.7" height="21.6"/>
	<text transform="matrix(1 0 0 1 789.8823 378.8616)" fill="#FFFFFF" font-family="'HelveticaNeue-Light'" font-size="7">Ann Taylor</text>
</g>
<g id="Godiva_Chocolatier">
	<path fill="none" stroke="#939598" stroke-miterlimit="10" d="M864.9,327.4l-13.7,38.3h-6.5H735.5l-6.4-0.1c-4.4-3.6-6.4-6-6.4-6
		L745,337h5.3l9.8-9.7L864.9,327.4z"/>
	<rect x="768.2" y="344.2" fill="none" width="63.7" height="21.6"/>
	<text transform="matrix(1 0 0 1 768.2157 349.1761)" fill="#FFFFFF" font-family="'HelveticaNeue-Light'" font-size="7">Godiva Chocolatier</text>
</g>
<g id="Phillipe_Suissa_Salon">
	<polygon fill="none" stroke="#939598" stroke-miterlimit="10" points="871.1,311.4 864.9,327.4 760.2,327.2 774,313.3 774,308.9 
		821,261.3 866.6,307 	"/>
	<rect x="802.9" y="302.8" fill="none" width="63.7" height="21.6"/>
	<text transform="matrix(1 0 0 1 802.8823 307.8201)"><tspan x="0" y="0" fill="#FFFFFF" font-family="'HelveticaNeue-Light'" font-size="7">Phillipe</tspan><tspan x="0" y="8.4" fill="#FFFFFF" font-family="'HelveticaNeue-Light'" font-size="7">Suissa Salon</tspan></text>
</g>
<g id="Arden_B">
	<path fill="none" stroke="#939598" stroke-miterlimit="10" d="M765.5,206.5L805,246l-46.7,46h-4.7l-24,24.7v5.7L707,343.7
		c-10.4-11.9-18.3-26.9-22.9-38.7L765.5,206.5z"/>
	<rect x="695.2" y="301.2" fill="none" width="63.7" height="21.6"/>
	<text transform="matrix(1 0 0 1 695.1666 306.1735)" fill="#FFFFFF" font-family="'HelveticaNeue-Light'" font-size="7">Arden B.</text>
</g>
<g id="J._Jill">
	<path fill="none" stroke="#939598" stroke-miterlimit="10" d="M684.1,305c-7-19-8.1-35.4-8.2-42.5l0-3.6l51-90.9l2.9,2.9l35.6,35.6
		L684.1,305z"/>
	<rect x="685.2" y="257.9" fill="none" width="63.7" height="21.6"/>
	<text transform="matrix(1 0 0 1 685.1667 262.8648)" fill="#FFFFFF" font-family="'HelveticaNeue-Light'" font-size="7">J. Jill</text>
</g>
<g id="Henri_Bendel">
	<polygon fill="none" stroke="#939598" stroke-miterlimit="10" points="727,168 625.3,168 625.3,258.9 676,258.9 	"/>
	<rect x="635.4" y="212.7" fill="none" width="21.6" height="63.7"/>
	<text transform="matrix(0 1 -1 0 652.0303 212.6892)" fill="#FFFFFF" font-family="'HelveticaNeue-Light'" font-size="7">Henri Bendel</text>
</g>
<g id="Victorias_Secret">
	<rect x="579.3" y="168" fill="none" stroke="#939598" stroke-miterlimit="10" width="46" height="90.9"/>
	<rect x="584.7" y="202" fill="none" width="21.6" height="63.7"/>
	<text transform="matrix(0 1 -1 0 601.3643 202.0226)" fill="#FFFFFF" font-family="'HelveticaNeue-Light'" font-size="7">Victoria’a Secret</text>
</g>
<g id="Bath_and_Body_Work">
	<polygon fill="none" points="455,168 579.3,168 579.3,267.5 444.7,267.5 444.7,177 455,177 	"/>
	<rect x="495.2" y="197.7" fill="none" width="21.6" height="63.7"/>
	<text transform="matrix(0 1 -1 0 511.8252 197.6893)" fill="#FFFFFF" font-family="'HelveticaNeue-Light'" font-size="7">Bath &amp; Body Works</text>
</g>
<g id="Gap">
	<rect x="381.5" y="178.5" fill="none" stroke="#939598" stroke-miterlimit="10" width="35" height="89"/>
	<rect x="386" y="247.1" fill="none" width="15" height="19"/>
	<text transform="matrix(0 1 -1 0 396.0312 247.056)" fill="#FFFFFF" font-family="'HelveticaNeue-Light'" font-size="7">Gap</text>
</g>
<g id="Gap_Kids">
	<path fill="none" stroke="#939598" stroke-miterlimit="10" d="M405.5,178.5h-24v86h-1h-33c0-7.5-9.5-13.6-9.5-13.6h-9.2
		c-6.5-5.3-14.8-8.4-23.8-8.4c-10.7,0-20.5,4.5-27.4,11.6L226,254v-86h179.5V178.5"/>
	<rect x="309.7" y="204.4" fill="none" width="21.6" height="63.7"/>
	<text transform="matrix(0 1 -1 0 326.3643 204.356)" fill="#FFFFFF" font-family="'HelveticaNeue-Light'" font-size="7">Gap Kids</text>
</g>
<g id="Nordstrom">
	<rect x="188" y="215" fill="none" stroke="#939598" stroke-miterlimit="10" width="38" height="148.4"/>
	<rect x="226" y="363.4" fill="none" stroke="#939598" stroke-miterlimit="10" width="148" height="39.6"/>
	<rect x="253.5" y="379.1" fill="none" width="96.8" height="37.1"/>
	<text transform="matrix(1 0 0 1 253.549 391.9682)" fill="#FFFFFF" font-family="'HelveticaNeue-Light'" font-size="18">Nordstrom</text>
	<rect x="176.9" y="245.2" fill="none" width="37.1" height="96.8"/>
	<text transform="matrix(0 1 -1 0 201.1777 245.2065)" fill="#FFFFFF" font-family="'HelveticaNeue-Light'" font-size="18">Nordstrom</text>
</g>
<g id="Outline">
	<path fill="none" stroke="#FFFFFF" stroke-width="2" stroke-miterlimit="10" d="M849.3,197.7L828,219.1
		c-22.4-13.1-49.6-10.5-49.6-10.5L730,160.3H220v46h-40.7v164.5H220v37.5h154v120h234.7v9.3H648v-6h47.3v20H758v-12h94V531h33.3v36
		h145.3l52.7,14l71.3-260.5L1092,303v5.9H878.7l-22.2-22.1c2-21.9-2.1-37.8-9.3-49.2l22.1-23.2L886,215l14.7-14.7l0.7-20l4.7-5.3
		l-12.7-14.7l-4.7,4l-23.3-0.7l-14.7,14L849.3,197.7z"/>
	<path fill="none" stroke="#FFFFFF" stroke-width="2" stroke-miterlimit="10" d="M625.3,277.7v93H638v21h-6.3v-8h-6.3v48.6H642v-4
		h5.3v4v21.3h52V449H688v-6h20.7v10.7h100v-44c0,0-127.3-1.3-148.7-132H625.3z"/>
	<rect x="172.8" y="627.8" fill="none" width="570.1" height="180"/>
	<text transform="matrix(1 0 0 1 172.8049 678.2152)" fill="#FFFFFF" font-family="'BebasNeueBold'" font-size="72">Ground Level</text>
</g>
</svg>
