<?xml version="1.0" encoding="utf-8"?>
<!-- Generator: Adobe Illustrator 18.1.1, SVG Export Plug-In . SVG Version: 6.00 Build 0)  -->
<svg version="1.1" xmlns="http://www.w3.org/2000/svg" xmlns:xlink="http://www.w3.org/1999/xlink" x="0px" y="0px"
	 viewBox="0 0 955.3 686.7" enable-background="new 0 0 955.3 686.7" xml:space="preserve">
<g id="Layer_1">
</g>
<g id="Outline">
	<rect x="0" y="0" fill="#414042" width="955.3" height="686.7"/>
	<g>
		<path fill="#FFFFFF" d="M359.4,84.8v56.4l31.3,29.3v15.3h4.7l72.7,72.7v4h69.3v-6h32v-14.7h29.3v5.3h7.3v9.5h35.7l3.4-5.7h82.7
			l0.2-17.1h30.7v4.7l7.3-2l-66,245.1H476.7v-23.1h-63.3v-12.7h3.3v-4h12v-9.3h-5.3v-16h-8.7v20.7h-11.3v-21.3h4v-6h-17.3v6h4v22.7
			h-10v6.7h10v22h6.7v14.6H205.4v-25.9h23.3v-27.3h-3.3V84.8H359.4 M361.4,82.8h-2h-134h-2v2v343.8v2h2h1.3v23.3h-21.3h-2v2v25.9v2
			h2h195.3h2v-2v-14.6v-2h-2h-4.7v-20v-2h-2h-8v-2.7h8h2v-2v-22.7v-2h-2h-2v-2h13.3v2h-2h-2v2v21.3v2h2h11.3h2v-2v-18.7h4.7v14v2h2
			h3.3v5.3h-10h-2v2v2h-1.3h-2v2v12.7v2h2h61.3v21.1v2h2h223.3h1.5l0.4-1.5l66-245.1l0.9-3.4l-3.4,0.9l-4.8,1.3v-2v-2h-2h-30.7h-2
			l0,2l-0.2,15.1h-80.7H644l-0.6,1l-2.8,4.8h-32.5v-7.5v-2h-2h-5.3v-3.3v-2h-2h-29.3h-2v2v12.7h-30h-2v2v4h-65.3v-2v-0.8l-0.6-0.6
			l-72.7-72.7l-0.6-0.6h-0.8h-2.7v-13.3v-0.9l-0.6-0.6l-30.7-28.7V84.8V82.8L361.4,82.8z"/>
	</g>
	<path fill="none" stroke="#939598" stroke-width="2" stroke-miterlimit="10" d="M492.4,262.6"/>
	<g>
		<path fill="#FFFFFF" d="M329.4,194.6c20.2,130.2,139.5,132.8,149.1,132.8c0.4,0,0.6,0,0.6,0v45.2H377.4v-11h-18v4.7h9v6.3h-49
			v-22.7h-2.7v-2h-2.8v2h-17.2v-49.4h5v8.7h5v-20.4h-10v-94.2H329.4 M331.1,192.6h-1.7h-32.7h-2v2v94.2v2h2h8v16.4h-1v-6.7v-2h-2h-5
			h-2v2v49.4v2h2h17.2h2h0.8h0.7v20.7v2h2h49h2v-2v-6.3v-2h-2h-7v-0.7h14v9v2h2h101.7h2v-2v-45.2v-2l-2,0c0,0-0.2,0-0.6,0
			c-3.6,0-36.2-0.5-69.6-17.4c-19-9.6-34.9-22.7-47.4-39c-15.4-20.1-25.5-45.3-30.1-74.8L331.1,192.6L331.1,192.6z"/>
	</g>
</g>
<g id="Fast_Fix_Jewelry_Repair">
	<polygon fill="none" stroke="#939598" stroke-miterlimit="10" points="313.9,481.2 313.9,442.6 347.7,442.6 384.1,442.6 
		384.1,445.2 394.1,445.2 394.1,467.2 400.7,467.2 400.7,481.2 	"/>
	<rect x="341.9" y="451.2" fill="none" width="49.3" height="26.8"/>
	<text transform="matrix(1 0 0 1 341.9452 456.2166)"><tspan x="0" y="0" fill="#FFFFFF" font-family="'HelveticaNeue-Light'" font-size="7">Fast Fix</tspan><tspan x="0" y="8.4" fill="#FFFFFF" font-family="'HelveticaNeue-Light'" font-size="7">Jewelry</tspan><tspan x="0" y="16.8" fill="#FFFFFF" font-family="'HelveticaNeue-Light'" font-size="7">Repair</tspan></text>
</g>
<g id="Johnny_Rockets">
	<polygon fill="none" stroke="#939598" stroke-miterlimit="10" points="318.4,386.9 318.4,392.4 313.9,392.4 313.9,442.6 
		347.7,442.6 347.7,386.9 	"/>
	<rect x="321.9" y="394.1" fill="none" width="18.3" height="49.3"/>
	<text transform="matrix(0 1 -1 0 335.282 394.0529)"><tspan x="0" y="0" fill="#FFFFFF" font-family="'HelveticaNeue-Light'" font-size="7">Johnny</tspan><tspan x="0" y="8.4" fill="#FFFFFF" font-family="'HelveticaNeue-Light'" font-size="7">Rockets</tspan></text>
</g>
<g id="Au_Bon_Pain">
	<rect x="347.7" y="386.9" fill="none" stroke="#939598" stroke-miterlimit="10" width="18.3" height="55.7"/>
	<rect x="348.9" y="394.1" fill="none" width="11.3" height="49.3"/>
	<text transform="matrix(0 1 -1 0 355.282 394.0529)" fill="#FFFFFF" font-family="'HelveticaNeue-Light'" font-size="7">Au Bon Pain</text>
</g>
<g id="Haagen_Dasz">
	<polygon fill="none" stroke="#939598" stroke-miterlimit="10" points="367.7,386.9 429.4,386.9 429.4,432.6 423.4,432.6 
		423.4,416.6 414.7,416.6 414.7,437.2 403.4,437.2 403.4,415.9 407.4,415.9 407.4,409.9 390.1,409.9 390.1,415.9 394.1,415.9 
		394.1,438.6 384.1,438.6 384.1,442.6 366.1,442.6 366.1,386.9 	"/>
	<rect x="368.9" y="394.1" fill="none" width="11.3" height="49.3"/>
	<text transform="matrix(0 1 -1 0 375.282 394.0529)" fill="#FFFFFF" font-family="'HelveticaNeue-Light'" font-size="7">Haagen-Dasz</text>
</g>
<g id="Sunglass_Hut">
	<polygon fill="none" stroke="#939598" stroke-miterlimit="10" points="429.4,458.6 476.7,458.6 476.7,386.9 429.4,386.9 
		429.4,442.2 416.7,442.2 416.7,445.9 413.4,445.9 413.4,458.6 	"/>
	<rect x="443.9" y="394.1" fill="none" width="11.3" height="49.3"/>
	<text transform="matrix(0 1 -1 0 450.282 394.0529)" fill="#FFFFFF" font-family="'HelveticaNeue-Light'" font-size="7">Sunglass Hut</text>
</g>
<g id="Express">
	<rect x="476.7" y="386.9" fill="none" stroke="#939598" stroke-miterlimit="10" width="60.7" height="94.3"/>
	<rect x="497.9" y="394.1" fill="none" width="11.3" height="34.3"/>
	<text transform="matrix(0 1 -1 0 504.281 394.0529)" fill="#FFFFFF" font-family="'HelveticaNeue-Light'" font-size="7">Express</text>
</g>
<g id="Forever_XXI">
	<polygon fill="none" stroke="#939598" stroke-miterlimit="10" points="672.4,467.9 683.7,427.2 698.7,430.6 698.7,412.6 
		705.4,412.6 705.4,366.2 719.1,366.2 719.1,251.4 645.4,251.2 641.7,256.6 537.4,256.6 537.4,481.2 672.1,481.2 672.1,470.6 	"/>
	<rect x="605.9" y="351.1" fill="none" width="63.7" height="32.3"/>
	<text transform="matrix(1 0 0 1 605.9451 356.0509)" fill="#FFFFFF" font-family="'HelveticaNeue-Light'" font-size="7">Forever XXI</text>
</g>
<g id="Panda_Express">
	<polygon fill="none" stroke="#939598" stroke-miterlimit="10" points="537.4,262.6 512.4,262.6 512.4,314.9 522.9,327.4 
		537.4,327.4 	"/>
	
		<text transform="matrix(2.084000e-02 0.9998 -0.9998 2.084000e-02 523.2568 272.3254)" fill="#FFFFFF" font-family="'HelveticaNeue-Light'" font-size="7">Panda Express</text>
</g>
<g id="Taco_Bell">
	<path fill="none" stroke="#939598" stroke-miterlimit="10" d="M492.4,262.6h20v52.2l-10-8.5c-3.6,0.1-7.1,0.1-10.5,0.1L492.4,262.6
		z"/>
	
		<text transform="matrix(5.200000e-03 1 -1 5.200000e-03 499.5889 274.7568)" fill="#FFFFFF" font-family="'HelveticaNeue-Light'" font-size="7">Taco Bell</text>
</g>
<g id="Chipotle">
	<polyline fill="none" stroke="#939598" stroke-miterlimit="10" points="471.4,305.3 477.9,262.6 488.1,262.6 492.4,262.6 
		491.9,306.5 471.4,305.3 	"/>
	
		<text transform="matrix(-5.155000e-02 0.9987 -0.9987 -5.155000e-02 481.6388 275.7413)" fill="#FFFFFF" font-family="'HelveticaNeue-Light'" font-size="7">Chipotle</text>
</g>
<g id="Villa_Fresh_Italian_Kitchen">
	<path fill="none" stroke="#939598" stroke-miterlimit="10" d="M460.9,251.4l7.2,7.2v4l9.8,0.1l-6.5,42.6c-9.3-1-17.8-2.7-25.7-4.8
		L460.9,251.4z"/>
	<text transform="matrix(0.2028 -0.9792 0.9792 0.2028 458.9429 299.8823)"><tspan x="0" y="0" fill="#FFFFFF" font-family="'HelveticaNeue-Light'" font-size="6">Villa Fresh</tspan><tspan x="0" y="7.2" fill="#FFFFFF" font-family="'HelveticaNeue-Light'" font-size="6">Italian Kitchen</tspan></text>
</g>
<g id="Kellys_Cajun_Grill">
	<polygon fill="none" stroke="#939598" stroke-miterlimit="10" points="423.7,292.7 451.9,242.4 460.9,251.4 445.7,300.5 	"/>
	<text transform="matrix(0.3323 -0.9432 0.9432 0.3323 435.9376 292.81)"><tspan x="0" y="0" fill="#FFFFFF" font-family="'HelveticaNeue-Light'" font-size="7">Kelly’s</tspan><tspan x="0" y="8.4" fill="#FFFFFF" font-family="'HelveticaNeue-Light'" font-size="7">Cajun Grill</tspan></text>
</g>
<g id="Subway">
	<path fill="none" stroke="#939598" stroke-miterlimit="10" d="M446.4,236.9l5.6,5.6l-28.2,50.2c-4.3-2-8.4-4.1-12.3-6.4
		L446.4,236.9z"/>
	
		<text transform="matrix(0.5094 -0.8605 0.8605 0.5094 422.8778 286.0507)" fill="#FFFFFF" font-family="'HelveticaNeue-Light'" font-size="7">Subway</text>
</g>
<g id="Texas_BBQ">
	<polygon fill="none" stroke="#939598" stroke-miterlimit="10" points="394.5,274.1 437.1,227.6 446.4,236.9 411.5,286.3 	"/>
	
		<text transform="matrix(0.6298 -0.7767 0.7767 0.6298 407.9501 276.378)" fill="#FFFFFF" font-family="'HelveticaNeue-Light'" font-size="7">Texas BBQ</text>
</g>
<g id="Maki_of_Japan">
	<path fill="none" stroke="#939598" stroke-miterlimit="10" d="M425,215.5l12.1,12.1l-42.6,46.6c-9-7.7-16.2-16.1-22-24.7L425,215.5
		z"/>
	<text transform="matrix(0.7613 -0.6484 0.6484 0.7613 386.6264 255.7301)"><tspan x="0" y="0" fill="#FFFFFF" font-family="'HelveticaNeue-Light'" font-size="7">Maki of</tspan><tspan x="0" y="8.4" fill="#FFFFFF" font-family="'HelveticaNeue-Light'" font-size="7">Japan</tspan></text>
</g>
<g id="McDonalds">
	<polygon fill="none" stroke="#939598" stroke-miterlimit="10" points="372.5,249.4 425,215.5 412.9,203.4 360.4,227.2 	"/>
	
		<text transform="matrix(0.8938 -0.4484 0.4484 0.8938 372.3551 236.7227)" fill="#FFFFFF" font-family="'HelveticaNeue-Light'" font-size="7">McDonald’s</text>
</g>
<g id="Popeyes_Chicken">
	<polygon fill="none" stroke="#939598" stroke-miterlimit="10" points="349.4,184.9 395.4,185.9 412.9,203.4 360.4,226.9 	"/>
	<text transform="matrix(0.9787 -0.2055 0.2055 0.9787 360.6288 203.4005)"><tspan x="0" y="0" fill="#FFFFFF" font-family="'HelveticaNeue-Light'" font-size="7">Popeyes</tspan><tspan x="0" y="8.4" fill="#FFFFFF" font-family="'HelveticaNeue-Light'" font-size="7">Chicken</tspan></text>
</g>
<g id="Panera_Bread">
	<polygon fill="none" stroke="#939598" stroke-miterlimit="10" points="390.7,170.6 359.4,141.2 336.9,176.7 349.4,184.9 
		390.7,185.8 	"/>
	<g>
		<text transform="matrix(1 0 0 1 351.2647 168.0531)"><tspan x="0" y="0" fill="#FFFFFF" font-family="'HelveticaNeue-Light'" font-size="7">Panera</tspan><tspan x="3.1" y="8.4" fill="#FFFFFF" font-family="'HelveticaNeue-Light'" font-size="7">Bread</tspan></text>
	</g>
</g>
<g id="Great_Wraps_and_Cheesesteaks">
	<polygon fill="none" stroke="#939598" stroke-miterlimit="10" points="358.9,142.4 358.9,117.9 320.9,117.9 320.9,172.9 
		329.4,172.9 336.9,176.7 	"/>
	<g>
		<text transform="matrix(0 1 -1 0 333.9445 123.2491)"><tspan x="0" y="0" fill="#FFFFFF" font-family="'HelveticaNeue-Light'" font-size="7">Great Wraps &amp;</tspan><tspan x="1.9" y="8.4" fill="#FFFFFF" font-family="'HelveticaNeue-Light'" font-size="7">Cheesesteaks</tspan></text>
	</g>
</g>
<g id="Salad_Creations">
	<rect x="299.4" y="117.9" fill="none" stroke="#939598" stroke-miterlimit="10" width="21.5" height="55"/>
	<g>
		<text transform="matrix(0 1 -1 0 312.9445 150.7306)"><tspan x="0" y="0" fill="#FFFFFF" font-family="'HelveticaNeue-Light'" font-size="7">Salad</tspan><tspan x="-11.8" y="8.4" fill="#FFFFFF" font-family="'HelveticaNeue-Light'" font-size="7">Creations</tspan></text>
	</g>
</g>
<g id="Harrys_Smokehouse_Burgers_and_BBQ">
	<polygon fill="none" stroke="#939598" stroke-miterlimit="10" points="292.6,481.2 229.1,481.2 229.1,428.6 225.4,428.6 
		225.4,402.3 282.1,402.3 282.1,386.9 286.9,386.9 286.9,392.4 292.6,392.4 	"/>
	<rect x="220.3" y="424.4" fill="none" width="57" height="55"/>
	<text transform="matrix(1 0 0 1 255.7536 429.3842)"><tspan x="0" y="0" fill="#FFFFFF" font-family="'HelveticaNeue-Light'" font-size="7">Harry’s</tspan><tspan x="-18.2" y="8.4" fill="#FFFFFF" font-family="'HelveticaNeue-Light'" font-size="7">Smokehouse</tspan><tspan x="-15.6" y="16.8" fill="#FFFFFF" font-family="'HelveticaNeue-Light'" font-size="7">Burgers and </tspan><tspan x="7" y="25.2" fill="#FFFFFF" font-family="'HelveticaNeue-Light'" font-size="7">BBQ</tspan></text>
</g>
<g id="Auntie_Annes_Pretzels">
	<rect x="225.4" y="353.4" fill="none" stroke="#939598" stroke-miterlimit="10" width="56.7" height="48.9"/>
	<rect x="220.3" y="370.4" fill="none" width="57" height="20.7"/>
	<text transform="matrix(1 0 0 1 235.531 375.3842)"><tspan x="0" y="0" fill="#FFFFFF" font-family="'HelveticaNeue-Light'" font-size="7">Auntie Anne’s </tspan><tspan x="17.9" y="8.4" fill="#FFFFFF" font-family="'HelveticaNeue-Light'" font-size="7">Pretzels</tspan></text>
</g>
<g id="Stars_and_Stripes">
	<rect x="225.4" y="323.9" fill="none" stroke="#939598" stroke-miterlimit="10" width="56.7" height="29.5"/>
	<rect x="220.3" y="334.4" fill="none" width="57" height="20.7"/>
	<text transform="matrix(1 0 0 1 232.4226 339.3842)" fill="#FFFFFF" font-family="'HelveticaNeue-Light'" font-size="7">Stars &amp; Stripes</text>
</g>
<g id="One_Stop_News">
	<rect x="225.4" y="294.5" fill="none" stroke="#939598" stroke-miterlimit="10" width="56.7" height="29.5"/>
	<rect x="220.3" y="305.4" fill="none" width="57" height="20.7"/>
	<text transform="matrix(1 0 0 1 229.3005 310.3842)" fill="#FFFFFF" font-family="'HelveticaNeue-Light'" font-size="7">One Stop News</text>
</g>
<g id="Bose">
	<rect x="225.4" y="276.2" fill="none" stroke="#939598" stroke-miterlimit="10" width="56.7" height="18.3"/>
	<text transform="matrix(1 0 0 1 261.7179 287.0527)" fill="#FFFFFF" font-family="'HelveticaNeue-Light'" font-size="7">Bose</text>
</g>
<g id="Lush">
	<rect x="225.4" y="257.9" fill="none" stroke="#939598" stroke-miterlimit="10" width="56.7" height="18.3"/>
	<text transform="matrix(1 0 0 1 262.6345 269.0527)" fill="#FFFFFF" font-family="'HelveticaNeue-Light'" font-size="7">Lush</text>
</g>
<g id="Game_Stop">
	<rect x="225.4" y="239.7" fill="none" stroke="#939598" stroke-miterlimit="10" width="56.7" height="18.3"/>
	<text transform="matrix(1 0 0 1 244.6023 251.0527)" fill="#FFFFFF" font-family="'HelveticaNeue-Light'" font-size="7">GameStop</text>
</g>
<g id="Bubbles_Haircutters">
	<rect x="225.4" y="215.5" fill="none" stroke="#939598" stroke-miterlimit="10" width="56.7" height="24.2"/>
	<text transform="matrix(1 0 0 1 252.5193 225.0527)"><tspan x="0" y="0" fill="#FFFFFF" font-family="'HelveticaNeue-Light'" font-size="7">Bubbles</tspan><tspan x="-8" y="8.4" fill="#FFFFFF" font-family="'HelveticaNeue-Light'" font-size="7">Haircutters</tspan></text>
</g>
<g id="The_Sweet_Factory">
	<rect x="225.4" y="191.3" fill="none" stroke="#939598" stroke-miterlimit="10" width="56.7" height="24.2"/>
	<text transform="matrix(1 0 0 1 245.113 201.0527)"><tspan x="0" y="0" fill="#FFFFFF" font-family="'HelveticaNeue-Light'" font-size="7">The Sweet</tspan><tspan x="9.7" y="8.4" fill="#FFFFFF" font-family="'HelveticaNeue-Light'" font-size="7">Factory</tspan></text>
</g>
<g id="Capital_One_Bank">
	<rect x="225.4" y="162" fill="none" stroke="#939598" stroke-miterlimit="10" width="56.7" height="29.3"/>
	<text transform="matrix(1 0 0 1 256.404 175.0527)"><tspan x="0" y="0" fill="#FFFFFF" font-family="'HelveticaNeue-Light'" font-size="7">Capital</tspan><tspan x="-9.2" y="8.4" fill="#FFFFFF" font-family="'HelveticaNeue-Light'" font-size="7">One Bank</tspan></text>
</g>
<g id="Modern_Day_Spa">
	<rect x="225.4" y="85.2" fill="none" stroke="#939598" stroke-miterlimit="10" width="56.7" height="51.3"/>
	<g>
		<text transform="matrix(1 0 0 1 254.0245 108.0527)"><tspan x="0" y="0" fill="#FFFFFF" font-family="'HelveticaNeue-Light'" font-size="7">Modern</tspan><tspan x="-2.4" y="8.4" fill="#FFFFFF" font-family="'HelveticaNeue-Light'" font-size="7">Day Spa</tspan></text>
	</g>
	<rect x="205.4" y="555.8" fill="none" width="570.1" height="180"/>
	<text transform="matrix(1 0 0 1 205.3876 606.2028)" fill="#FFFFFF" font-family="'BebasNeueBold'" font-size="60">Metro Level</text>
</g>
</svg>
