<?xml version="1.0" encoding="utf-8"?>
<!-- Generator: Adobe Illustrator 18.1.1, SVG Export Plug-In . SVG Version: 6.00 Build 0)  -->
<svg version="1.1" xmlns="http://www.w3.org/2000/svg" xmlns:xlink="http://www.w3.org/1999/xlink" x="0px" y="0px"
	 viewBox="0 0 1332 772" enable-background="new 0 0 1332 772" xml:space="preserve">
<g id="_x31_">
	<rect y="-1" fill="#414042" width="1332" height="772"/>
	<rect x="200.6" y="552" fill="none" width="570.1" height="180"/>
	<text transform="matrix(1 0 0 1 200.6383 602.391)" fill="#FFFFFF" font-family="'BebasNeueBold'" font-size="72">Second Level</text>
	<path fill="none" stroke="#000000" stroke-miterlimit="10" d="M344.6,362.2"/>
	<path fill="none" stroke="#000000" stroke-miterlimit="10" d="M602.1,358.3"/>
	<path fill="none" stroke="#000000" stroke-miterlimit="10" d="M401.6,253.2"/>
	<path fill="none" stroke="#000000" stroke-width="2" stroke-miterlimit="10" d="M842.3,260.1"/>
	<polygon fill="none" stroke="#939598" stroke-miterlimit="10" points="750,316 750,324 761.3,335.8 771.3,335.8 794.3,314.3 
		794.3,305 783.3,293.3 773.7,293.3 	"/>
</g>
<g id="White_House_Black_Market">
	<rect x="236.6" y="314.1" fill="none" width="43.7" height="74.1"/>
	<text transform="matrix(-1.346898e-10 1 -1 -1.346898e-10 275.2676 314.1088)"><tspan x="0" y="0" fill="#FFFFFF" font-family="'HelveticaNeue-Light'" font-size="7">White House</tspan><tspan x="0" y="8.4" fill="#FFFFFF" font-family="'HelveticaNeue-Light'" font-size="7">Black Market</tspan></text>
	<path fill="none" stroke="#939598" stroke-miterlimit="10" d="M299.8,362.2h-53.8v-56.8h29.8h16.4c0,0,14.5-0.1,13.8,13.4
		S299.8,362.2,299.8,362.2"/>
</g>
<g id="Lucky_Brand_Jeans">
	<rect x="338.6" y="311.9" fill="none" width="43.7" height="74.1"/>
	<text transform="matrix(-1.346898e-10 1 -1 -1.346898e-10 377.2676 311.8588)"><tspan x="0" y="0" fill="#FFFFFF" font-family="'HelveticaNeue-Light'" font-size="7">Lucky Brand</tspan><tspan x="0" y="8.4" fill="#FFFFFF" font-family="'HelveticaNeue-Light'" font-size="7">Jeans</tspan></text>
	<path fill="none" stroke="#939598" stroke-miterlimit="10" d="M348.2,362.2l-6-45.5c0,0-2.7-11.4,14.8-11.4c18.2,0,50.2,0,50.2,0
		v56.8H348.2z"/>
</g>
<g id="Johnston_and_Murphy">
	<rect x="407.2" y="305.4" fill="none" stroke="#939598" stroke-miterlimit="10" width="48" height="56.8"/>
	<rect x="418.8" y="312.1" fill="none" width="20" height="74.1"/>
	<text transform="matrix(-1.346898e-10 1 -1 -1.346898e-10 433.7671 312.1088)"><tspan x="0" y="0" fill="#FFFFFF" font-family="'HelveticaNeue-Light'" font-size="7">Johnston &amp;</tspan><tspan x="0" y="8.4" fill="#FFFFFF" font-family="'HelveticaNeue-Light'" font-size="7">Murphy</tspan></text>
</g>
<g id="bebe">
	<rect x="455.2" y="305.4" fill="none" stroke="#939598" stroke-miterlimit="10" width="56.2" height="56.8"/>
	<rect x="466.1" y="310.9" fill="none" width="20" height="74.1"/>
	
		<text transform="matrix(-1.346898e-10 1 -1 -1.346898e-10 481.0854 310.9436)" fill="#FFFFFF" font-family="'HelveticaNeue-Light'" font-size="7">bebe</text>
</g>
<g id="Mezlan_Shoes">
	<rect x="511.5" y="305.4" fill="none" stroke="#939598" stroke-miterlimit="10" width="49.5" height="56.8"/>
	<rect x="523.8" y="312.9" fill="none" width="20" height="74.1"/>
	<text transform="matrix(-1.346898e-10 1 -1 -1.346898e-10 538.7671 312.8998)"><tspan x="0" y="0" fill="#FFFFFF" font-family="'HelveticaNeue-Light'" font-size="7">Mezlan</tspan><tspan x="0" y="8.4" fill="#FFFFFF" font-family="'HelveticaNeue-Light'" font-size="7">Shoes</tspan></text>
</g>
<g id="Michael_Kors">
	<rect x="561" y="305.4" fill="none" stroke="#939598" stroke-miterlimit="10" width="71.5" height="28.4"/>
	<rect x="577.5" y="316.6" fill="none" width="63.7" height="32.3"/>
	<text transform="matrix(1 0 0 1 577.4999 321.6351)" fill="#FFFFFF" font-family="'HelveticaNeue-Light'" font-size="7">Michael Kors</text>
</g>
<g id="Origins">
	<rect x="561" y="333.8" fill="none" stroke="#939598" stroke-miterlimit="10" width="71.5" height="28.4"/>
	<rect x="595.2" y="343.9" fill="none" width="63.7" height="32.3"/>
	<text transform="matrix(1 0 0 1 595.2499 348.8857)" fill="#FFFFFF" font-family="'HelveticaNeue-Light'" font-size="7">Origins</text>
</g>
<g id="Teavana">
	<rect x="577.5" y="362.2" fill="none" stroke="#939598" stroke-miterlimit="10" width="55" height="19.5"/>
	<rect x="593" y="369.8" fill="none" width="63.7" height="14.7"/>
	<text transform="matrix(1 0 0 1 592.9999 374.8314)" fill="#FFFFFF" font-family="'HelveticaNeue-Light'" font-size="7">Teavana</text>
</g>
<g id="Papyrus">
	<rect x="577.5" y="381.8" fill="none" stroke="#939598" stroke-miterlimit="10" width="55" height="37.5"/>
	<rect x="594.5" y="397.3" fill="none" width="63.7" height="14.7"/>
	<text transform="matrix(1 0 0 1 594.4999 402.3314)" fill="#FFFFFF" font-family="'HelveticaNeue-Light'" font-size="7">Papyrus</text>
</g>
<g id="Aveda">
	<rect x="577.5" y="419.2" fill="none" stroke="#939598" stroke-miterlimit="10" width="55" height="48.8"/>
	<rect x="600.7" y="439.3" fill="none" width="63.7" height="14.7"/>
	<text transform="matrix(1 0 0 1 600.6665 444.2897)" fill="#FFFFFF" font-family="'HelveticaNeue-Light'" font-size="7">Aveda</text>
</g>
<g id="Armani_Exchange">
	<polygon fill="none" stroke="#939598" stroke-miterlimit="10" points="696.5,513 669.3,513.1 669.3,526.5 633.2,526.5 633.2,521.6 
		577.5,522 577.5,468 696.5,468 	"/>
	<rect x="620.2" y="484.9" fill="none" width="63.7" height="14.7"/>
	<text transform="matrix(1 0 0 1 620.1665 489.937)"><tspan x="0" y="0" fill="#FFFFFF" font-family="'HelveticaNeue-Light'" font-size="7">Armani</tspan><tspan x="0" y="8.4" fill="#FFFFFF" font-family="'HelveticaNeue-Light'" font-size="7">Exchange</tspan></text>
</g>
<g id="Tumi">
	<polygon fill="none" stroke="#939598" stroke-miterlimit="10" points="718.2,492.3 718.2,502 723.1,502.1 723.1,518.2 728.5,518.2 
		728.5,525.5 728.5,526.5 669.3,526.5 669.3,513.1 696.5,513 696.5,468 718.3,468 	"/>
	<rect x="695.2" y="473.2" fill="none" width="14.7" height="63.7"/>
	<text transform="matrix(0 1 -1 0 704.918 473.1666)" fill="#FFFFFF" font-family="'HelveticaNeue-Light'" font-size="7">Tumi</text>
</g>
<g id="Fire_and_Ice">
	<rect x="718.3" y="468" fill="none" stroke="#939598" stroke-miterlimit="10" width="32.5" height="24.3"/>
	<rect x="727" y="473.2" fill="none" width="14.7" height="63.7"/>
	<text transform="matrix(0 1 -1 0 736.668 473.1666)"><tspan x="0" y="0" fill="#FFFFFF" font-family="'HelveticaNeue-Light'" font-size="7">Fire</tspan><tspan x="0" y="8.4" fill="#FFFFFF" font-family="'HelveticaNeue-Light'" font-size="7">&amp; Ice</tspan></text>
</g>
<g id="LOccitane">
	<polygon fill="none" stroke="#939598" stroke-miterlimit="10" points="750.8,468 801,468 800.8,514.8 827.5,514.8 827.5,526.5 
		769.6,526.5 769.6,525.4 769.6,518.8 774.7,518.8 774.7,497.3 756.6,497.3 756.6,492.3 750.8,492.3 	"/>
	<rect x="759.3" y="476.7" fill="none" width="63.7" height="14.7"/>
	<text transform="matrix(1 0 0 1 759.3331 481.687)" fill="#FFFFFF" font-family="'HelveticaNeue-Light'" font-size="7">L’Occitane</text>
</g>
<g id="Icing_by_Claires">
	<polygon fill="none" stroke="#939598" stroke-miterlimit="10" points="843.3,468 801,468 800.8,514.8 827.5,514.8 827.5,526.5 
		843.3,526.5 843.3,470.7 	"/>
	<rect x="815.2" y="473.2" fill="none" width="14.7" height="63.7"/>
	<text transform="matrix(-1.346898e-10 1 -1 -1.346898e-10 824.8359 473.1665)"><tspan x="0" y="0" fill="#FFFFFF" font-family="'HelveticaNeue-Light'" font-size="7">Icing by</tspan><tspan x="0" y="8.4" fill="#FFFFFF" font-family="'HelveticaNeue-Light'" font-size="7">Claire’s</tspan></text>
</g>
<g id="MAC_Cosmetics">
	<polygon fill="none" stroke="#939598" stroke-miterlimit="10" points="843.3,526.5 865,526.5 865,522 881.7,522 881.7,468 
		843.3,468 	"/>
	<rect x="856.1" y="473.2" fill="none" width="14.7" height="63.7"/>
	<text transform="matrix(-1.346898e-10 1 -1 -1.346898e-10 865.75 473.1665)"><tspan x="0" y="0" fill="#FFFFFF" font-family="'HelveticaNeue-Light'" font-size="7">M-A-C</tspan><tspan x="0" y="8.4" fill="#FFFFFF" font-family="'HelveticaNeue-Light'" font-size="7">Cosmetics</tspan></text>
</g>
<g id="The_Limited">
	<path fill="none" stroke="#939598" stroke-miterlimit="10" d="M950.3,560.7h79V556h23.8l19.6-75.9l-1-1c-6-7.9-13.9-7.6-13.9-7.6
		h-5.3V468H950.3L950.3,560.7z"/>
	<rect x="951.8" y="474.3" fill="none" width="14.7" height="63.7"/>
	
		<text transform="matrix(-1.346898e-10 1 -1 -1.346898e-10 961.502 474.3242)" fill="#FFFFFF" font-family="'HelveticaNeue-Light'" font-size="7">The Limited</text>
</g>
<g id="Cache">
	<rect x="916" y="468" fill="none" stroke="#939598" stroke-miterlimit="10" width="34.3" height="92.7"/>
	<rect x="920.3" y="474.4" fill="none" width="14.7" height="63.7"/>
	
		<text transform="matrix(-1.346898e-10 1 -1 -1.346898e-10 930.002 474.386)" fill="#FFFFFF" font-family="'HelveticaNeue-Light'" font-size="7">Caché</text>
</g>
<g id="Gymboree">
	<rect x="881.7" y="468" fill="none" stroke="#939598" stroke-miterlimit="10" width="34.3" height="54"/>
	<rect x="885.7" y="473.2" fill="none" width="14.7" height="63.7"/>
	
		<text transform="matrix(-1.346898e-10 1 -1 -1.346898e-10 895.416 473.1665)" fill="#FFFFFF" font-family="'HelveticaNeue-Light'" font-size="7">Gymboree</text>
</g>
<g id="Macys">
	<polygon fill="none" stroke="#939598" stroke-miterlimit="10" points="1094,583.9 1049.1,571.6 1114.1,319.9 1114.6,317.8 
		1160.7,329.9 	"/>
	
		<rect x="1042" y="443.6" transform="matrix(-0.2551 0.9669 -0.9669 -0.2551 1815.3743 -474.3367)" fill="none" width="96.8" height="37.1"/>
	
		<text transform="matrix(-0.2551 0.9669 -0.9669 -0.2551 1108.2279 416.7987)" fill="#FFFFFF" font-family="'HelveticaNeue-Light'" font-size="18">MACY’S</text>
</g>
<g id="Abercrombie_and_Fitch">
	<polyline fill="none" stroke="#939598" stroke-miterlimit="10" points="1089.6,414.7 996,414.7 996,314.6 1107.3,314.6 
		1107.3,319.3 1114.1,319.3 1089.6,414.7 	"/>
	<rect x="1024.1" y="341.9" fill="none" width="14.7" height="63.7"/>
	
		<text transform="matrix(-1.346898e-10 1 -1 -1.346898e-10 1033.752 341.9146)" fill="#FFFFFF" font-family="'HelveticaNeue-Light'" font-size="7">Abercrombie &amp; Fitch</text>
</g>
<g id="Francescas_Collections">
	<rect x="933" y="314.6" fill="none" stroke="#939598" stroke-miterlimit="10" width="63" height="100.1"/>
	<rect x="952" y="333.5" fill="none" width="14.7" height="90.2"/>
	
		<text transform="matrix(-1.346898e-10 1 -1 -1.346898e-10 961.6689 333.5253)" fill="#FFFFFF" font-family="'HelveticaNeue-Light'" font-size="7">Francesca’s Collections</text>
</g>
<g id="Free_People">
	<rect x="895.7" y="314.6" fill="none" stroke="#939598" stroke-miterlimit="10" width="37.3" height="100.1"/>
	<rect x="901.3" y="366.5" fill="none" width="14.7" height="90.2"/>
	
		<text transform="matrix(-1.346898e-10 1 -1 -1.346898e-10 911.0029 366.4979)" fill="#FFFFFF" font-family="'HelveticaNeue-Light'" font-size="7">Free People</text>
</g>
<g id="kate_spade_new_york">
	<polygon fill="none" stroke="#939598" stroke-miterlimit="10" points="895.7,314.6 863.4,281.2 863.4,402 878,402 878,414.7 
		895.7,414.7 	"/>
	<rect x="867.3" y="327" fill="none" width="14.7" height="90.2"/>
	
		<text transform="matrix(-1.346898e-10 1 -1 -1.346898e-10 877.0029 326.9979)" fill="#FFFFFF" font-family="'HelveticaNeue-Light'" font-size="7">kate spade new york</text>
</g>
<g id="BCBGMAXAZRIA">
	<rect x="836.4" y="308.7" fill="none" width="14.7" height="90.2"/>
	
		<text transform="matrix(-1.346898e-10 1 -1 -1.346898e-10 846.083 308.6542)" fill="#FFFFFF" font-family="'HelveticaNeue-Light'" font-size="7">BCBGMAXAZRIA</text>
	<path fill="none" stroke="#939598" stroke-miterlimit="10" d="M863.4,376.2c-10.4,1.1-22.5,0.5-31.1,0.1v-107l9.6-9.6l21.5,21.5
		V376.2z"/>
</g>
<g id="Kenneth_Cole">
	<rect x="808.9" y="319.5" fill="none" width="14.7" height="90.2"/>
	
		<text transform="matrix(-1.346898e-10 1 -1 -1.346898e-10 818.583 319.5271)" fill="#FFFFFF" font-family="'HelveticaNeue-Light'" font-size="7">Kenneth Cole</text>
	<path fill="none" stroke="#939598" stroke-miterlimit="10" d="M807,295.9v77.6c0,0,18,3.4,25.4,2.8v-107L807,295.9z"/>
</g>
<g id="Modern_Nails">
	<rect x="787" y="340.9" fill="none" width="14.7" height="90.2"/>
	<text transform="matrix(-1.346898e-10 1 -1 -1.346898e-10 796.6689 340.9166)"><tspan x="0" y="0" fill="#FFFFFF" font-family="'HelveticaNeue-Light'" font-size="7">Modern</tspan><tspan x="0" y="8.4" fill="#FFFFFF" font-family="'HelveticaNeue-Light'" font-size="7">Nails</tspan></text>
	<path fill="none" stroke="#939598" stroke-miterlimit="10" d="M807,373.5c-26.1-6-38-17.2-38-17.2l37.4-37.3L807,373.5z"/>
</g>
<g id="Bare_Minerals">
	<path fill="none" stroke="#939598" stroke-miterlimit="10" d="M826.7,245.6l-78.6-78.7L711.3,240c0,0-2.7,51.6,19,79l38.6-37.8H790
		L826.7,245.6z"/>
	<rect x="735.6" y="227.5" fill="none" width="14.7" height="90.2"/>
	
		<text transform="matrix(-1.346898e-10 1 -1 -1.346898e-10 745.249 227.4703)" fill="#FFFFFF" font-family="'HelveticaNeue-Light'" font-size="7">Bare Minerals</text>
</g>
<g id="Apple">
	<polygon fill="none" stroke="#939598" stroke-miterlimit="10" points="711.3,240 657.3,240 657.3,166.5 748.1,166.8 	"/>
	<rect x="674.5" y="209.6" fill="none" width="14.7" height="38.4"/>
	
		<text transform="matrix(-1.346898e-10 1 -1 -1.346898e-10 684.209 209.5818)" fill="#FFFFFF" font-family="'HelveticaNeue-Light'" font-size="7">Apple</text>
</g>
<g id="Coach">
	<polygon fill="none" stroke="#939598" stroke-miterlimit="10" points="632.6,245.2 605.4,245.2 605.4,166.5 657.3,166.5 657.3,240 
		633.2,240.2 	"/>
	<rect x="619.2" y="209.3" fill="none" width="14.7" height="38.4"/>
	
		<text transform="matrix(-1.346898e-10 1 -1 -1.346898e-10 628.835 209.2621)" fill="#FFFFFF" font-family="'HelveticaNeue-Light'" font-size="7">Coach</text>
</g>
<g id="Hugo_Boss">
	<rect x="568" y="166.8" fill="none" stroke="#939598" stroke-miterlimit="10" width="30.6" height="86.1"/>
	<rect x="573.7" y="206.8" fill="none" width="14.7" height="38.4"/>
	
		<text transform="matrix(-1.346898e-10 1 -1 -1.346898e-10 583.335 206.7941)" fill="#FFFFFF" font-family="'HelveticaNeue-Light'" font-size="7">Hugo Boss</text>
</g>
<g id="Cole_Haan">
	<rect x="534" y="166.5" fill="none" stroke="#939598" stroke-miterlimit="10" width="34" height="86.1"/>
	<rect x="539.3" y="209.3" fill="none" width="14.7" height="38.4"/>
	
		<text transform="matrix(-1.346898e-10 1 -1 -1.346898e-10 549.0146 209.2823)" fill="#FFFFFF" font-family="'HelveticaNeue-Light'" font-size="7">Cole Haan</text>
</g>
<g id="Oakley">
	<rect x="506.7" y="166.5" fill="none" stroke="#939598" stroke-miterlimit="10" width="27.3" height="86.1"/>
	<rect x="508.8" y="220.8" fill="none" width="14.7" height="38.4"/>
	
		<text transform="matrix(-1.346898e-10 1 -1 -1.346898e-10 518.502 220.8256)" fill="#FFFFFF" font-family="'HelveticaNeue-Light'" font-size="7">Oakley</text>
</g>
<g id="Sperry">
	<polygon fill="none" stroke="#939598" stroke-miterlimit="10" points="506.7,252.6 464.7,252.6 464.7,176.9 475.3,176.9 
		475.3,166.8 506.7,166.5 	"/>
	<rect x="477.1" y="220.5" fill="none" width="14.7" height="38.4"/>
	
		<text transform="matrix(-1.346898e-10 1 -1 -1.346898e-10 486.752 220.5121)" fill="#FFFFFF" font-family="'HelveticaNeue-Light'" font-size="7">Sperry</text>
</g>
<g id="American_Eagle_Outfitters">
	<rect x="394.2" y="172.8" fill="none" width="14.7" height="72.4"/>
	<text transform="matrix(-1.346898e-10 1 -1 -1.346898e-10 403.9155 198.2308)"><tspan x="0" y="0" fill="#FFFFFF" font-family="'HelveticaNeue-Light'" font-size="7">American Eagle </tspan><tspan x="19.5" y="8.4" fill="#FFFFFF" font-family="'HelveticaNeue-Light'" font-size="7">Outfitters</tspan></text>
	<polyline fill="none" stroke="#939598" stroke-miterlimit="10" points="401.6,252.6 436.6,252.6 436.6,177.3 425.6,177 425.6,176 
		425.6,166.5 368,166.5 368,252.6 401.6,252.6 	"/>
</g>
<g id="Outline">
	<rect x="979.7" y="426" fill="#414042" stroke="#FFFFFF" stroke-width="2" stroke-miterlimit="10" width="77.3" height="31"/>
	<rect x="878" y="426" fill="#414042" stroke="#FFFFFF" stroke-width="2" stroke-miterlimit="10" width="84.7" height="31"/>
	<rect x="370.3" y="264.6" fill="#414042" stroke="#FFFFFF" stroke-width="2" stroke-miterlimit="10" width="98" height="30.3"/>
	<rect x="485.7" y="264.6" fill="#414042" stroke="#FFFFFF" stroke-width="2" stroke-miterlimit="10" width="61" height="30.3"/>
	<rect x="564.7" y="264.6" fill="#414042" stroke="#FFFFFF" stroke-width="2" stroke-miterlimit="10" width="51.7" height="30.3"/>
	<circle fill="#414042" stroke="#FFFFFF" stroke-width="2" stroke-miterlimit="10" cx="324.3" cy="279.5" r="29"/>
	<path fill="none" stroke="#FFFFFF" stroke-width="2" stroke-miterlimit="10" d="M570.7,527.1h58.1l0.3,3.3h86.3v20h69.7v-19.8
		l120.3-0.9v36h136.3l-2.4,11l59.3,16.6l71.7-269.7l-58.3-16H898.7l-22.2-22.1c2-21.9-2.1-37.8-9.3-49.2l22.1-23.2l16.7,0.7
		l14.7-14.7l0.7-20l4.7-5.3l-12.7-14.7l-4.7,4l-23.3-0.7l-14.7,14l-1.3,20L848,217.9c-22.4-13.1-49.6-10.5-49.6-10.5l-48.4-48.3
		h-510v46h-40.7v164.5h40.7v37.5h162v-37.8H570L570.7,527.1z"/>
	<path fill="#414042" stroke="#FFFFFF" stroke-width="2" stroke-miterlimit="10" d="M708.9,448.4h-39.5v-19.2v-4.3h-5.8v4.3h-11.1
		l-0.1-36.2h5.9v-22.8h-12.8V260.1h48.7c17.2,143.3,150.6,132.5,150.6,132.5v59.8H729v-9.6h-20L708.9,448.4z"/>
</g>
<g id="A_Pea_in_the_Pod">
	<rect x="232" y="166.5" fill="none" width="43.7" height="74.1"/>
	
		<text transform="matrix(-1.346898e-10 1 -1 -1.346898e-10 270.6699 189.9655)" fill="#FFFFFF" font-family="'HelveticaNeue-Light'" font-size="7">A Pea in the Pod</text>
	<rect x="246.1" y="166.5" fill="none" stroke="#939598" stroke-miterlimit="10" width="48.6" height="84.4"/>
</g>
<g id="Old_Virginia_Tobacco_Company">
	<rect x="294.7" y="157.9" fill="none" width="43.7" height="74.1"/>
	<text transform="matrix(-1.346898e-10 1 -1 -1.346898e-10 333.4199 198.0297)"><tspan x="0" y="0" fill="#FFFFFF" font-family="'HelveticaNeue-Light'" font-size="7">Old Virginia</tspan><tspan x="7.4" y="8.4" fill="#FFFFFF" font-family="'HelveticaNeue-Light'" font-size="7">Tobacco</tspan><tspan x="4.7" y="16.8" fill="#FFFFFF" font-family="'HelveticaNeue-Light'" font-size="7">Company</tspan></text>
	<path fill="none" stroke="#939598" stroke-miterlimit="10" d="M357.3,252.6c-6.7-7.1-14-15.2-32.3-15.2c-16.8,0-23.5,7-30.4,13.5
		v-84.4H368v86.1H357.3z"/>
</g>
<g id="Nordstrom">
	<rect x="208.1" y="213.8" fill="none" stroke="#939598" stroke-miterlimit="10" width="38" height="148.4"/>
	<rect x="246.1" y="362.2" fill="none" stroke="#939598" stroke-miterlimit="10" width="148" height="39.6"/>
	<rect x="276.5" y="376.1" fill="none" width="96.8" height="37.1"/>
	<text transform="matrix(1 0 0 1 276.4991 388.9151)" fill="#FFFFFF" font-family="'HelveticaNeue-Light'" font-size="18">Nordstrom</text>
	<rect x="197.8" y="245.2" fill="none" width="37.1" height="96.8"/>
	<text transform="matrix(0 1 -1 0 222.1279 245.1533)" fill="#FFFFFF" font-family="'HelveticaNeue-Light'" font-size="18">Nordstrom</text>
</g>
</svg>
