<?xml version="1.0" encoding="utf-8"?>
<!-- Generator: Adobe Illustrator 18.1.1, SVG Export Plug-In . SVG Version: 6.00 Build 0)  -->
<svg version="1.1" xmlns="http://www.w3.org/2000/svg" xmlns:xlink="http://www.w3.org/1999/xlink" x="0px" y="0px"
	 viewBox="0 0 1332 772" enable-background="new 0 0 1332 772" xml:space="preserve">
<g id="_x31_">
	<rect fill="#414042" width="1332" height="772"/>
	<rect x="221.1" y="574" fill="none" width="570.1" height="180"/>
	<text transform="matrix(1 0 0 1 221.1229 624.3922)" fill="#FFFFFF" font-family="'BebasNeueBold'" font-size="72">THird Level</text>
	<path fill="none" stroke="#000000" stroke-miterlimit="10" d="M699.9,263.6"/>
	<path fill="none" stroke="#000000" stroke-miterlimit="10" d="M366.3,385.5"/>
	<path fill="none" stroke="#000000" stroke-miterlimit="10" d="M623.8,381.6"/>
	<path fill="none" stroke="#000000" stroke-miterlimit="10" d="M321.5,385.5"/>
	<path fill="none" stroke="#000000" stroke-miterlimit="10" d="M425,275.9"/>
	<path fill="none" stroke="#000000" stroke-miterlimit="10" d="M423.3,276.5"/>
	<path fill="none" stroke="#000000" stroke-width="2" stroke-miterlimit="10" d="M864,283.3"/>
	<polygon fill="none" stroke="#939598" stroke-miterlimit="10" points="771.7,339.3 771.7,347.3 783,359 793,359 816,337.6 
		816,328.3 805,316.6 795.4,316.6 	"/>
</g>
<g id="Radioshack">
	<rect x="267.8" y="328.6" fill="none" stroke="#939598" stroke-miterlimit="10" width="28.2" height="56.8"/>
	<rect x="270.4" y="335.8" fill="none" width="13.9" height="63.7"/>
	<text transform="matrix(0 1 -1 0 279.2998 335.8138)" fill="#FFFFFF" font-family="'HelveticaNeue-Light'" font-size="7">Radioshack</text>
</g>
<g id="Royal_Jewelers">
	<path fill="none" stroke="#939598" stroke-miterlimit="10" d="M321.5,385.5H296v-56.8l1.5,0H314c0,0,7.7,8.6,13.8,10.9v2.5
		C327,355.5,321.5,385.5,321.5,385.5"/>
	<rect x="301.2" y="338.7" fill="none" width="13.9" height="63.7"/>
	<text transform="matrix(0 1 -1 0 310.1182 338.6937)"><tspan x="0" y="0" fill="#FFFFFF" font-family="'HelveticaNeue-Light'" font-size="7">Royal</tspan><tspan x="0" y="8.4" fill="#FFFFFF" font-family="'HelveticaNeue-Light'" font-size="7">Jewelers</tspan></text>
</g>
<g id="myeyedr">
	<path fill="none" stroke="#939598" stroke-miterlimit="10" d="M364,340l5.5,45.5h42.8v-56.8c0,0-21.8,0-35.3,0
		C376.9,328.6,370.6,337.3,364,340z"/>
	<rect x="381.1" y="335.8" fill="none" width="13.9" height="63.7"/>
	<text transform="matrix(0 1 -1 0 390.0703 335.8138)" fill="#FFFFFF" font-family="'HelveticaNeue-Light'" font-size="7">myeyeDr.</text>
</g>
<g id="Kids_Foot_Locker">
	<rect x="412.2" y="328.6" fill="none" stroke="#939598" stroke-miterlimit="10" width="49.5" height="56.8"/>
	<rect x="427.8" y="335.8" fill="none" width="13.9" height="63.7"/>
	<text transform="matrix(0 1 -1 0 436.7002 335.8138)"><tspan x="0" y="0" fill="#FFFFFF" font-family="'HelveticaNeue-Light'" font-size="7">Kids Foot</tspan><tspan x="0" y="8.4" fill="#FFFFFF" font-family="'HelveticaNeue-Light'" font-size="7">Locker</tspan></text>
</g>
<g id="The_Body_Shop">
	<rect x="461.7" y="328.6" fill="none" stroke="#939598" stroke-miterlimit="10" width="51.5" height="56.8"/>
	<rect x="479.4" y="336.9" fill="none" width="13.9" height="63.7"/>
	<text transform="matrix(0 1 -1 0 488.3418 336.9437)"><tspan x="0" y="0" fill="#FFFFFF" font-family="'HelveticaNeue-Light'" font-size="7">The Body</tspan><tspan x="0" y="8.4" fill="#FFFFFF" font-family="'HelveticaNeue-Light'" font-size="7">Shop</tspan></text>
</g>
<g id="American_Greetings">
	<rect x="513.3" y="328.6" fill="none" stroke="#939598" stroke-miterlimit="10" width="33.5" height="56.8"/>
	<rect x="523" y="336.9" fill="none" width="13.9" height="63.7"/>
	<text transform="matrix(0 1 -1 0 531.9756 336.9437)"><tspan x="0" y="0" fill="#FFFFFF" font-family="'HelveticaNeue-Light'" font-size="7">American</tspan><tspan x="0" y="8.4" fill="#FFFFFF" font-family="'HelveticaNeue-Light'" font-size="7">Greetings</tspan></text>
</g>
<g id="Sunglass_Hut">
	<rect x="546.8" y="328.6" fill="none" stroke="#939598" stroke-miterlimit="10" width="35.9" height="56.8"/>
	<rect x="557.8" y="337.9" fill="none" width="13.9" height="63.7"/>
	<text transform="matrix(0 1 -1 0 566.7002 337.9437)"><tspan x="0" y="0" fill="#FFFFFF" font-family="'HelveticaNeue-Light'" font-size="7">Sunglass</tspan><tspan x="0" y="8.4" fill="#FFFFFF" font-family="'HelveticaNeue-Light'" font-size="7">Hut</tspan></text>
</g>
<g id="Helzberg_Diamonds">
	<polygon fill="none" stroke="#939598" stroke-miterlimit="10" points="652.3,385.5 582.7,385.5 582.7,328.6 643.3,328.6 
		643.3,334.7 652.3,334.7 	"/>
	<rect x="608.8" y="337.9" fill="none" width="13.9" height="63.7"/>
	<text transform="matrix(0 1 -1 0 617.7578 337.9437)"><tspan x="0" y="0" fill="#FFFFFF" font-family="'HelveticaNeue-Light'" font-size="7">Helzberg</tspan><tspan x="0" y="8.4" fill="#FFFFFF" font-family="'HelveticaNeue-Light'" font-size="7">Diamonds</tspan></text>
</g>
<g id="Lids">
	<rect x="599.2" y="385.5" fill="none" stroke="#939598" stroke-miterlimit="10" width="53.1" height="47"/>
	<rect x="617.5" y="404.2" fill="none" width="63.7" height="13.9"/>
	<text transform="matrix(1 0 0 1 617.521 409.2401)" fill="#FFFFFF" font-family="'HelveticaNeue-Light'" font-size="7">Lids</text>
</g>
<g id="Backrach">
	<rect x="599.2" y="432.5" fill="none" stroke="#939598" stroke-miterlimit="10" width="53.1" height="58.8"/>
	<rect x="611.7" y="457.2" fill="none" width="63.7" height="13.9"/>
	<text transform="matrix(1 0 0 1 611.7081 462.164)" fill="#FFFFFF" font-family="'HelveticaNeue-Light'" font-size="7">Backrach</text>
</g>
<g id="America">
	<polygon fill="none" stroke="#939598" stroke-miterlimit="10" points="599.2,491.3 689.7,491.3 689.7,548.2 655.8,548.2 655.8,545 
		599.2,545 	"/>
	<rect x="620.5" y="514.9" fill="none" width="63.7" height="13.9"/>
	<text transform="matrix(1 0 0 1 620.4999 519.9135)" fill="#FFFFFF" font-family="'HelveticaNeue-Light'" font-size="7">America!</text>
</g>
<g id="General_Nutrition_Center">
	<rect x="701" y="491.3" fill="none" stroke="#939598" stroke-miterlimit="10" width="32" height="56.9"/>
	<rect x="697" y="497" fill="none" width="30.6" height="63.7"/>
	<text transform="matrix(-1.346898e-10 1 -1 -1.346898e-10 722.5908 497.0096)"><tspan x="0" y="0" fill="#FFFFFF" font-family="'HelveticaNeue-Light'" font-size="7">General</tspan><tspan x="0" y="8.4" fill="#FFFFFF" font-family="'HelveticaNeue-Light'" font-size="7">Nutrition</tspan><tspan x="0" y="16.8" fill="#FFFFFF" font-family="'HelveticaNeue-Light'" font-size="7">Center</tspan></text>
</g>
<g id="Aerosoles">
	<polygon fill="none" stroke="#939598" stroke-miterlimit="10" points="745.2,520.1 745.5,535.2 733,535.2 733,491.3 758,491.3 
		758,498.8 763.5,507.8 763.5,520.1 	"/>
	<rect x="729.4" y="495.5" fill="none" width="13.9" height="63.7"/>
	
		<text transform="matrix(-1.346898e-10 1 -1 -1.346898e-10 738.3408 495.5096)" fill="#FFFFFF" font-family="'HelveticaNeue-Light'" font-size="7">Aerosoles</text>
</g>
<g id="Auntie_Annes_Pretzels">
	<polygon fill="none" stroke="#939598" stroke-miterlimit="10" points="779,516.5 781.7,518.9 782,526.5 797.5,526.5 797.8,541.8 
		802.5,541.8 802.5,550.8 812.5,550.8 812.5,491.3 785,491.3 785,500 779,509.3 	"/>
	<rect x="795.8" y="497" fill="none" width="13.9" height="63.7"/>
	<text transform="matrix(-1.346898e-10 1 -1 -1.346898e-10 804.6787 497.0096)"><tspan x="0" y="0" fill="#FFFFFF" font-family="'HelveticaNeue-Light'" font-size="7">Auntie Anne’s</tspan><tspan x="0" y="8.4" fill="#FFFFFF" font-family="'HelveticaNeue-Light'" font-size="7">Pretzels</tspan></text>
</g>
<g id="Motherhood_Maternity">
	<rect x="812.5" y="491.3" fill="none" stroke="#000000" stroke-miterlimit="10" width="20.2" height="59.5"/>
	<rect x="815.7" y="497" fill="none" width="13.9" height="63.7"/>
	<text transform="matrix(-1.346898e-10 1 -1 -1.346898e-10 824.5908 497.0096)"><tspan x="0" y="0" fill="#FFFFFF" font-family="'HelveticaNeue-Light'" font-size="7">Motherhood</tspan><tspan x="0" y="8.4" fill="#FFFFFF" font-family="'HelveticaNeue-Light'" font-size="7">Maternity</tspan></text>
</g>
<g id="Destination_DC">
	<rect x="832.8" y="491.3" fill="none" stroke="#000000" stroke-miterlimit="10" width="13.2" height="59.5"/>
	<rect x="828.4" y="497" fill="none" width="13.9" height="63.7"/>
	
		<text transform="matrix(-1.346898e-10 1 -1 -1.346898e-10 837.3232 497.0096)" fill="#FFFFFF" font-family="'HelveticaNeue-Light'" font-size="7">Destination DC</text>
</g>
<g id="Claires">
	<rect x="852.8" y="491.3" fill="none" stroke="#939598" stroke-miterlimit="10" width="62.5" height="57.7"/>
	<rect x="873.2" y="498.5" fill="none" width="13.9" height="63.7"/>
	
		<text transform="matrix(-1.346898e-10 1 -1 -1.346898e-10 882.1807 498.5096)" fill="#FFFFFF" font-family="'HelveticaNeue-Light'" font-size="7">Claire’s </text>
</g>
<g id="Things_Remembered">
	<polygon fill="none" stroke="#939598" stroke-miterlimit="10" points="937.6,549.1 937.7,583.9 954.9,583.9 954.9,491.3 
		915.3,491.3 915.3,549 	"/>
	<rect x="934.1" y="497" fill="none" width="13.9" height="63.7"/>
	
		<text transform="matrix(-1.346898e-10 1 -1 -1.346898e-10 942.9932 497.0096)" fill="#FFFFFF" font-family="'HelveticaNeue-Light'" font-size="7">Things Remembered</text>
</g>
<g id="Foot_Locker">
	<rect x="954.9" y="491.3" fill="none" stroke="#939598" stroke-miterlimit="10" width="17.2" height="92.7"/>
	<rect x="952.4" y="497.5" fill="none" width="13.9" height="63.7"/>
	
		<text transform="matrix(-1.346898e-10 1 -1 -1.346898e-10 961.3232 497.5096)" fill="#FFFFFF" font-family="'HelveticaNeue-Light'" font-size="7">Foot Locker</text>
</g>
<g id="House_of_Hoops">
	<path fill="none" stroke="#939598" stroke-miterlimit="10" d="M972,583.9h89v-4.7h13.8l19.6-75.9l-1-1c-6-7.9-13.9-7.6-13.9-7.6
		h-5.3v-3.5H972L972,583.9z"/>
	<rect x="1016.4" y="498.5" fill="none" width="13.9" height="63.7"/>
	
		<text transform="matrix(-1.346898e-10 1 -1 -1.346898e-10 1025.3232 498.5096)" fill="#FFFFFF" font-family="'HelveticaNeue-Light'" font-size="7">House of Hoops</text>
</g>
<g id="Macys">
	<polygon fill="none" stroke="#939598" stroke-miterlimit="10" points="1115.7,607.2 1070.8,594.9 1135.8,343.1 1136.3,341.1 
		1182.4,353.2 	"/>
	
		<rect x="1065.3" y="464.6" transform="matrix(-0.2551 0.9669 -0.9669 -0.2551 1864.9688 -470.4171)" fill="none" width="96.8" height="37.1"/>
	
		<text transform="matrix(-0.2551 0.9669 -0.9669 -0.2551 1131.517 437.8629)" fill="#FFFFFF" font-family="'HelveticaNeue-Light'" font-size="18">MACY’S</text>
</g>
<g id="Lens_Crafters">
	<polyline fill="none" stroke="#939598" stroke-miterlimit="10" points="1111.3,437.9 1085,437.9 1085,337.8 1129,337.8 1129,342.6 
		1135.8,342.6 1111.3,437.9 	"/>
	<rect x="1087" y="360.9" fill="none" width="13.9" height="63.7"/>
	
		<text transform="matrix(-1.346898e-10 1 -1 -1.346898e-10 1095.9307 386.2323)" fill="#FFFFFF" font-family="'HelveticaNeue-Light'" font-size="7">LensCrafters</text>
</g>
<g id="Regis_Hairstylists">
	<rect x="1044" y="337.8" fill="none" stroke="#939598" stroke-miterlimit="10" width="41" height="100.1"/>
	<rect x="1052.6" y="360.1" fill="none" width="13.9" height="63.7"/>
	
		<text transform="matrix(-1.346898e-10 1 -1 -1.346898e-10 1061.5732 372.8512)" fill="#FFFFFF" font-family="'HelveticaNeue-Light'" font-size="7">Regis Hairstylists</text>
</g>
<g id="Finish_Line">
	<rect x="997.5" y="337.8" fill="none" stroke="#939598" stroke-miterlimit="10" width="46.5" height="100.1"/>
	<rect x="1009.8" y="360.9" fill="none" width="13.9" height="63.7"/>
	
		<text transform="matrix(-1.346898e-10 1 -1 -1.346898e-10 1018.7158 392.9803)" fill="#FFFFFF" font-family="'HelveticaNeue-Light'" font-size="7">Finihs Line</text>
</g>
<g id="Lady_Foot_Locker">
	<rect x="950.8" y="337.8" fill="none" stroke="#939598" stroke-miterlimit="10" width="46.8" height="100.1"/>
	<rect x="962.2" y="361.9" fill="none" width="13.9" height="63.7"/>
	
		<text transform="matrix(-1.346898e-10 1 -1 -1.346898e-10 971.1279 372.826)" fill="#FFFFFF" font-family="'HelveticaNeue-Light'" font-size="7">Lady Foot Locker</text>
</g>
<g id="AT_and_T">
	<polygon fill="none" stroke="#939598" stroke-miterlimit="10" points="883,385 883,410.5 886.1,410.5 886.1,424.4 899.7,437.9 
		915.8,437.9 917.4,437.9 917.4,337.8 929,316.6 937.1,307.1 922.8,293.2 	"/>
	<rect x="896.6" y="361.6" fill="none" width="13.9" height="63.7"/>
	
		<text transform="matrix(-1.346898e-10 1 -1 -1.346898e-10 905.5732 408.7844)" fill="#FFFFFF" font-family="'HelveticaNeue-Light'" font-size="7">AT&amp;T</text>
</g>
<g id="Journeys">
	<polygon fill="none" stroke="#939598" stroke-miterlimit="10" points="917.4,437.9 950.8,437.9 950.8,337.8 943.1,337.8 943,330.3 
		929,316.6 917.4,337.8 	"/>
	<rect x="923.2" y="361.6" fill="none" width="13.9" height="63.7"/>
	
		<text transform="matrix(-1.346898e-10 1 -1 -1.346898e-10 932.1279 397.8997)" fill="#FFFFFF" font-family="'HelveticaNeue-Light'" font-size="7">Journeys</text>
</g>
<g id="Outline">
	<rect x="1001.4" y="449.3" fill="none" stroke="#FFFFFF" stroke-width="2" stroke-miterlimit="10" width="77.3" height="31"/>
	<rect x="899.7" y="449.3" fill="none" stroke="#FFFFFF" stroke-width="2" stroke-miterlimit="10" width="84.7" height="31"/>
	<rect x="408.8" y="287.8" fill="none" stroke="#FFFFFF" stroke-width="2" stroke-miterlimit="10" width="81.2" height="30.3"/>
	<rect x="507.4" y="287.8" fill="none" stroke="#FFFFFF" stroke-width="2" stroke-miterlimit="10" width="61" height="30.3"/>
	<rect x="586.4" y="287.8" fill="none" stroke="#FFFFFF" stroke-width="2" stroke-miterlimit="10" width="51.7" height="30.3"/>
	<circle fill="none" stroke="#FFFFFF" stroke-width="2" stroke-miterlimit="10" cx="346" cy="302.8" r="29"/>
	<polygon fill="none" stroke="#FFFFFF" stroke-width="2" stroke-miterlimit="10" points="730.8,283.3 667.1,283.3 667.1,393.5 
		679.9,393.5 679.9,416.3 674,416.3 674.1,452.5 685.2,452.5 685.2,448.2 691,448.2 691,452.5 691,471.7 730.6,471.7 730.7,466.1 
		750.7,466.1 750.7,475.7 867.5,475.7 867.5,415.9 850.3,415.9 850.3,396.7 846.3,396.7 846.2,400.3 829.2,398.5 829.8,395 
		822.2,393.7 821.5,397.2 806.3,391.8 807.5,388.7 801.5,385.7 799.5,389 785.7,380.3 787.7,377.3 782.7,373 779.8,376.2 
		769.7,367.2 772.2,364.8 766.5,358.8 764,361.3 754.7,351 757.2,348.5 753.3,343 750.3,344.8 743.5,332.3 747,330.7 744.5,324.7 
		741,326 736,311.7 739.3,310.3 737.3,303 734,303.8 731.2,288.2 734.3,287.8 734.7,283.3 	"/>
	<polygon fill="none" stroke="#FFFFFF" stroke-width="2" stroke-miterlimit="10" points="946.5,328.2 935,315.8 943.2,307.4 
		928.8,292.2 935.7,285 920.9,269.5 928.4,262 909,242.6 907.4,240.7 911.1,236.4 927.8,237 942.5,222.4 943.1,202.4 947.8,197 
		935.1,182.4 930.5,186.4 907.1,185.7 892.5,199.7 891.1,219.7 888.1,222.8 886.3,221.2 866.9,201.8 859.3,209.3 845.4,195.4 
		838.3,202 826.1,189.1 816,199.2 800.7,183.7 786.5,197.1 771.8,182.4 261.8,182.4 261.8,228.4 221.1,228.4 221.1,392.9 
		261.8,392.9 261.8,430.4 423.8,430.4 423.8,392.6 591.7,392.6 592.4,550.4 650.5,550.4 650.8,553.7 737.1,553.7 737.1,573.7 
		806.8,573.7 806.8,553.9 927.1,553 927.1,589 1063.5,589 1061,600 1120.4,616.6 1192,346.9 1133.8,330.9 947.5,330.9 	"/>
</g>
<g id="Verizon_Wireless">
	<polygon fill="none" stroke="#939598" stroke-miterlimit="10" points="790.8,303 810.7,303 818.8,294.8 820.1,296.1 882,234.2 
		867.8,220 860.9,226.9 847,213 839.2,220.8 824.4,205.9 816.1,214.1 801.8,199.9 786.4,215.4 	"/>
	<rect x="816" y="240.2" fill="none" width="63.7" height="38.2"/>
	<text transform="matrix(1 0 0 1 816.0422 245.1564)"><tspan x="0" y="0" fill="#FFFFFF" font-family="'HelveticaNeue-Light'" font-size="7">Verizon</tspan><tspan x="0" y="8.4" fill="#FFFFFF" font-family="'HelveticaNeue-Light'" font-size="7">Wireless</tspan></text>
</g>
<g id="Rockport">
	<path fill="none" stroke="#939598" stroke-miterlimit="10" d="M774.5,203.5l-5.3-5.3l-22,65.4c0,0-3.7,45.3,15.3,69.2l6.1-6.4
		L774.5,203.5z"/>
	<rect x="726.1" y="222.9" fill="none" width="38.2" height="63.7"/>
	
		<text transform="matrix(-1.346898e-10 1 -1 -1.346898e-10 759.3232 258.6957)" fill="#FFFFFF" font-family="'HelveticaNeue-Light'" font-size="7">Rockport</text>
</g>
<g id="Jos_A_Bank">
	<polygon fill="none" stroke="#939598" stroke-miterlimit="10" points="654.3,263.6 654.3,199.2 769.2,198.2 747.2,263.6 
		699.9,263.6 	"/>
	<rect x="671.7" y="193.1" fill="none" width="38.2" height="63.7"/>
	<text transform="matrix(-1.346898e-10 1 -1 -1.346898e-10 704.9014 218.2592)"><tspan x="0" y="0" fill="#FFFFFF" font-family="'HelveticaNeue-Light'" font-size="7">Jos. A. Bank</tspan><tspan x="12.1" y="8.4" fill="#FFFFFF" font-family="'HelveticaNeue-Light'" font-size="7">Clotheirs</tspan></text>
</g>
<g id="Vision_Works_Docotors_of_Optometry">
	<rect x="610.6" y="199.7" fill="none" stroke="#939598" stroke-miterlimit="10" width="36.8" height="74.3"/>
	<rect x="602.4" y="203.9" fill="none" width="38.2" height="63.7"/>
	<text transform="matrix(-1.346898e-10 1 -1 -1.346898e-10 635.6582 228.5886)"><tspan x="0" y="0" fill="#FFFFFF" font-family="'HelveticaNeue-Light'" font-size="7">Vision Works</tspan><tspan x="7.5" y="8.4" fill="#FFFFFF" font-family="'HelveticaNeue-Light'" font-size="7">Doctors of</tspan><tspan x="6.9" y="16.8" fill="#FFFFFF" font-family="'HelveticaNeue-Light'" font-size="7">Optometry</tspan></text>
</g>
<g id="Perfumania">
	<polygon fill="none" stroke="#939598" stroke-miterlimit="10" points="768.6,326.4 790.8,303 790.8,301.2 786.7,219.7 786.4,215.4 
		774.5,203.5 	"/>
	<rect x="768.6" y="236.9" fill="none" width="13.9" height="63.7"/>
	
		<text transform="matrix(-1.346898e-10 1 -1 -1.346898e-10 777.5732 266.569)" fill="#FFFFFF" font-family="'HelveticaNeue-Light'" font-size="7">Perfumania</text>
</g>
<g id="The_Children_x27_s_Place">
	<rect x="569.7" y="199.5" fill="none" stroke="#939598" stroke-miterlimit="10" width="40.9" height="74.3"/>
	<rect x="582.8" y="203.4" fill="none" width="14.7" height="63.7"/>
	<text transform="matrix(-1.346898e-10 1 -1 -1.346898e-10 592.4473 223.6726)"><tspan x="0" y="0" fill="#FFFFFF" font-family="'HelveticaNeue-Light'" font-size="7">The Children’s</tspan><tspan x="26.8" y="8.4" fill="#FFFFFF" font-family="'HelveticaNeue-Light'" font-size="7">Place</tspan></text>
</g>
<g id="Stride_Rite">
	<polygon fill="none" stroke="#939598" stroke-miterlimit="10" points="536.8,273.8 486.4,273.8 486.4,208.4 505.2,208.4 
		505.2,199.7 536.8,199.5 	"/>
	<rect x="502.7" y="202.9" fill="none" width="14.7" height="63.7"/>
	
		<text transform="matrix(-1.346898e-10 1 -1 -1.346898e-10 512.3252 235.3601)" fill="#FFFFFF" font-family="'HelveticaNeue-Light'" font-size="7">Stride Rite</text>
</g>
<g id="Clarks">
	<rect x="536.8" y="199.5" fill="none" stroke="#939598" stroke-miterlimit="10" width="32.8" height="74.3"/>
	<rect x="542.7" y="203.9" fill="none" width="14.7" height="63.7"/>
	
		<text transform="matrix(-1.346898e-10 1 -1 -1.346898e-10 552.3252 248.6794)" fill="#FFFFFF" font-family="'HelveticaNeue-Light'" font-size="7">Clarks</text>
</g>
<g id="Nordstrom">
	<rect x="229.8" y="237" fill="none" stroke="#939598" stroke-miterlimit="10" width="38" height="148.4"/>
	<rect x="267.8" y="385.5" fill="none" stroke="#939598" stroke-miterlimit="10" width="148" height="39.6"/>
	<rect x="299.8" y="397.1" fill="none" width="96.8" height="37.1"/>
	<text transform="matrix(1 0 0 1 299.7865 409.9793)" fill="#FFFFFF" font-family="'HelveticaNeue-Light'" font-size="18">Nordstrom</text>
	<rect x="221.1" y="266.2" fill="none" width="37.1" height="96.8"/>
	<text transform="matrix(0 1 -1 0 245.416 266.2175)" fill="#FFFFFF" font-family="'HelveticaNeue-Light'" font-size="18">Nordstrom</text>
</g>
<g id="Champs_Sports">
	<path fill="none" stroke="#939598" stroke-miterlimit="10" d="M311.5,274.4h-34.2v-75.2H339v62.6c-11.4,1.4-16.8,7.7-22.4,12.6
		H311.5z"/>
	<rect x="292.2" y="215.9" fill="none" width="14.7" height="63.7"/>
	
		<text transform="matrix(-1.346898e-10 1 -1 -1.346898e-10 301.8213 215.9264)" fill="#FFFFFF" font-family="'HelveticaNeue-Light'" font-size="7">Champs Sports</text>
</g>
<g id="Healthy_Magic">
	<path fill="none" stroke="#939598" stroke-miterlimit="10" d="M339,261.8v-62.6h54.2v75.7H378C378,274.9,366.1,259,339,261.8"/>
	<rect x="360.4" y="210.1" fill="none" width="14.7" height="63.7"/>
	
		<text transform="matrix(-1.346898e-10 1 -1 -1.346898e-10 370.0449 210.0817)" fill="#FFFFFF" font-family="'HelveticaNeue-Light'" font-size="7">Healthy Magic</text>
</g>
<g id="Bag_n_Baggage">
	<rect x="393.1" y="199.2" fill="none" stroke="#939598" stroke-miterlimit="10" width="14.6" height="75.7"/>
	<rect x="389.1" y="219.3" fill="none" width="14.7" height="63.7"/>
	
		<text transform="matrix(-1.346898e-10 1 -1 -1.346898e-10 398.7734 219.2598)" fill="#FFFFFF" font-family="'HelveticaNeue-Light'" font-size="7">Bag ‘n Baggage</text>
</g>
<g id="As_Seen_on_TV">
	<rect x="407.8" y="199.2" fill="none" stroke="#939598" stroke-miterlimit="10" width="18.5" height="75.7"/>
	<rect x="406.4" y="224.2" fill="none" width="14.7" height="63.7"/>
	
		<text transform="matrix(-1.346898e-10 1 -1 -1.346898e-10 416.0859 224.226)" fill="#FFFFFF" font-family="'HelveticaNeue-Light'" font-size="7">As Seen on TV</text>
</g>
<g id="Zales_Jewelers">
	<polygon fill="none" stroke="#939598" stroke-miterlimit="10" points="426.3,274.9 458.3,274.9 458.3,208.8 440.8,208.5 
		440.8,199.2 426.3,199.2 	"/>
	<rect x="434.3" y="204.8" fill="none" width="14.7" height="63.7"/>
	<text transform="matrix(-1.346898e-10 1 -1 -1.346898e-10 443.9922 252.4952)"><tspan x="0" y="0" fill="#FFFFFF" font-family="'HelveticaNeue-Light'" font-size="7">Zales</tspan><tspan x="-10.5" y="8.4" fill="#FFFFFF" font-family="'HelveticaNeue-Light'" font-size="7">Jewelers</tspan></text>
</g>
<g id="Hollister">
	<path fill="none" stroke="#939598" stroke-miterlimit="10" d="M922.8,293.2l6.1-8.9l-14.1-14.1l7.5-7.5l-18.7-18.7l-68,68l1.4,1.4
		l-8.5,8.5v20.8l-27.8,27C814,384,845.2,385,845.2,385H883L922.8,293.2z"/>
	<rect x="860.5" y="290.6" fill="none" width="13.9" height="63.7"/>
	
		<text transform="matrix(-1.346898e-10 1 -1 -1.346898e-10 869.4229 317.5963)" fill="#FFFFFF" font-family="'HelveticaNeue-Light'" font-size="7">Hollister Co.</text>
</g>
</svg>
