<?xml version="1.0" encoding="utf-8"?>
<!-- Generator: Adobe Illustrator 18.1.1, SVG Export Plug-In . SVG Version: 6.00 Build 0)  -->
<svg version="1.1" xmlns="http://www.w3.org/2000/svg" xmlns:xlink="http://www.w3.org/1999/xlink" x="0px" y="0px"
	 viewBox="0 0 631.5 580.5" enable-background="new 0 0 631.5 580.5" xml:space="preserve">
<g id="Layer_1">
</g>
<g id="Outline">
	<rect x="0" y="0" fill="#414042" width="631.5" height="580.5"/>
	<g>
		<path fill="#FFFFFF" d="M186,30.9v56.4l31.3,29.3V132h4.7l72.7,72.7v4H364v-6h32V188h29.3v5.3h7.3v9.5h35.7l3.4-5.7h82.7l0.2-17.1
			h30.7v4.7l7.3-2l-66,245.1H303.4v-23.1H240V392h3.3v-4h12v-9.3H250v-16h-8.7v20.7H230V362h4v-6h-17.3v6h4v22.7h-10v6.7h10v22h6.7
			v14.6H32V402h23.3v-27.3H52V30.9H186 M188,28.9h-2H52h-2v2v343.8v2h2h1.3V400H32h-2v2v25.9v2h2h195.3h2v-2v-14.6v-2h-2h-4.7v-20
			v-2h-2h-8v-2.7h8h2v-2V362v-2h-2h-2v-2H232v2h-2h-2v2v21.3v2h2h11.3h2v-2v-18.7h4.7v14v2h2h3.3v5.3h-10h-2v2v2H240h-2v2v12.7v2h2
			h61.3v21.1v2h2h223.3h1.5l0.4-1.5l66-245.1l0.9-3.4l-3.4,0.9l-4.8,1.3v-2v-2h-2h-30.7h-2l0,2l-0.2,15.1h-80.7h-1.1l-0.6,1
			l-2.8,4.8h-32.5v-7.5v-2h-2h-5.3V188v-2h-2H396h-2v2v12.7h-30h-2v2v4h-65.3v-2v-0.8l-0.6-0.6l-72.7-72.7l-0.6-0.6H222h-2.7v-13.3
			v-0.9l-0.6-0.6L188,86.5V30.9V28.9L188,28.9z"/>
	</g>
	<path fill="none" stroke="#939598" stroke-width="2" stroke-miterlimit="10" d="M319,208.8"/>
	<g>
		<path fill="#FFFFFF" d="M156,140.7c20.2,130.2,139.5,132.8,149.1,132.8c0.4,0,0.6,0,0.6,0v45.2H204v-11h-18v4.7h9v6.3h-49V296
			h-2.7v-2h-2.8v2h-17.2v-49.4h5v8.7h5v-20.4h-10v-94.2H156 M157.7,138.7H156h-32.7h-2v2v94.2v2h2h8v16.4h-1v-6.7v-2h-2h-5h-2v2V296
			v2h2h17.2h2h0.8h0.7v20.7v2h2h49h2v-2v-6.3v-2h-2h-7v-0.7h14v9v2h2h101.7h2v-2v-45.2v-2l-2,0c0,0-0.2,0-0.6,0
			c-3.6,0-36.2-0.5-69.6-17.4c-19-9.6-34.9-22.7-47.4-39c-15.4-20.1-25.5-45.3-30.1-74.8L157.7,138.7L157.7,138.7z"/>
	</g>
</g>
<g id="Fast_Fix_Jewelry_Repair">
	<polygon fill="none" stroke="#939598" stroke-miterlimit="10" points="140.5,427.3 140.5,388.7 174.4,388.7 210.7,388.7 
		210.7,391.3 220.7,391.3 220.7,413.3 227.4,413.3 227.4,427.3 	"/>
	<rect x="168.6" y="397.3" fill="none" width="49.3" height="26.8"/>
	<text transform="matrix(1 0 0 1 168.5826 402.3353)"><tspan x="0" y="0" fill="#FFFFFF" font-family="'HelveticaNeue-Light'" font-size="7">Fast Fix</tspan><tspan x="0" y="8.4" fill="#FFFFFF" font-family="'HelveticaNeue-Light'" font-size="7">Jewelry</tspan><tspan x="0" y="16.8" fill="#FFFFFF" font-family="'HelveticaNeue-Light'" font-size="7">Repair</tspan></text>
</g>
<g id="Johnny_Rockets">
	<polygon fill="none" stroke="#939598" stroke-miterlimit="10" points="145,333 145,338.5 140.5,338.5 140.5,388.7 174.4,388.7 
		174.4,333 	"/>
	<rect x="148.6" y="340.2" fill="none" width="18.3" height="49.3"/>
	<text transform="matrix(0 1 -1 0 161.9194 340.1717)"><tspan x="0" y="0" fill="#FFFFFF" font-family="'HelveticaNeue-Light'" font-size="7">Johnny</tspan><tspan x="0" y="8.4" fill="#FFFFFF" font-family="'HelveticaNeue-Light'" font-size="7">Rockets</tspan></text>
</g>
<g id="Au_Bon_Pain">
	<rect x="174.4" y="333" fill="none" stroke="#939598" stroke-miterlimit="10" width="18.3" height="55.7"/>
	<rect x="175.6" y="340.2" fill="none" width="11.3" height="49.3"/>
	<text transform="matrix(0 1 -1 0 181.9194 340.1717)" fill="#FFFFFF" font-family="'HelveticaNeue-Light'" font-size="7">Au Bon Pain</text>
</g>
<g id="Haagen_Dasz">
	<polygon fill="none" stroke="#939598" stroke-miterlimit="10" points="194.4,333 256,333 256,378.7 250,378.7 250,362.7 
		241.4,362.7 241.4,383.3 230,383.3 230,362 234,362 234,356 216.7,356 216.7,362 220.7,362 220.7,384.7 210.7,384.7 210.7,388.7 
		192.7,388.7 192.7,333 	"/>
	<rect x="195.6" y="340.2" fill="none" width="11.3" height="49.3"/>
	<text transform="matrix(0 1 -1 0 201.9194 340.1717)" fill="#FFFFFF" font-family="'HelveticaNeue-Light'" font-size="7">Haagen-Dasz</text>
</g>
<g id="Sunglass_Hut">
	<polygon fill="none" stroke="#939598" stroke-miterlimit="10" points="256,404.7 303.4,404.7 303.4,333 256,333 256,388.3 
		243.4,388.3 243.4,392 240,392 240,404.7 	"/>
	<rect x="270.6" y="340.2" fill="none" width="11.3" height="49.3"/>
	<text transform="matrix(0 1 -1 0 276.9194 340.1717)" fill="#FFFFFF" font-family="'HelveticaNeue-Light'" font-size="7">Sunglass Hut</text>
</g>
<g id="Express">
	<rect x="303.4" y="333" fill="none" stroke="#939598" stroke-miterlimit="10" width="60.7" height="94.3"/>
	<rect x="324.6" y="340.2" fill="none" width="11.3" height="34.3"/>
	<text transform="matrix(0 1 -1 0 330.9185 340.1717)" fill="#FFFFFF" font-family="'HelveticaNeue-Light'" font-size="7">Express</text>
</g>
<g id="Forever_XXI">
	<polygon fill="none" stroke="#939598" stroke-miterlimit="10" points="499,414 510.4,373.3 525.4,376.7 525.4,358.7 532,358.7 
		532,312.3 545.7,312.3 545.7,197.5 472,197.3 468.4,202.7 364,202.7 364,427.3 498.7,427.3 498.7,416.7 	"/>
	<rect x="432.6" y="297.2" fill="none" width="63.7" height="32.3"/>
	<text transform="matrix(1 0 0 1 432.5825 302.1696)" fill="#FFFFFF" font-family="'HelveticaNeue-Light'" font-size="7">Forever XXI</text>
</g>
<g id="Panda_Express">
	<polygon fill="none" stroke="#939598" stroke-miterlimit="10" points="364,208.7 339,208.8 339,261 349.5,273.5 364,273.5 	"/>
	
		<text transform="matrix(2.084000e-02 0.9998 -0.9998 2.084000e-02 349.8943 218.4442)" fill="#FFFFFF" font-family="'HelveticaNeue-Light'" font-size="7">Panda Express</text>
</g>
<g id="Taco_Bell">
	<path fill="none" stroke="#939598" stroke-miterlimit="10" d="M319,208.8h20V261l-10-8.5c-3.6,0.1-7.1,0.1-10.5,0.1L319,208.8z"/>
	
		<text transform="matrix(5.200000e-03 1 -1 5.200000e-03 326.2264 220.8756)" fill="#FFFFFF" font-family="'HelveticaNeue-Light'" font-size="7">Taco Bell</text>
</g>
<g id="Chipotle">
	<polyline fill="none" stroke="#939598" stroke-miterlimit="10" points="298,251.4 304.5,208.8 314.7,208.8 319,208.8 318.5,252.6 
		298,251.4 	"/>
	
		<text transform="matrix(-5.155000e-02 0.9987 -0.9987 -5.155000e-02 308.2763 221.8601)" fill="#FFFFFF" font-family="'HelveticaNeue-Light'" font-size="7">Chipotle</text>
</g>
<g id="Villa_Fresh_Italian_Kitchen">
	<path fill="none" stroke="#939598" stroke-miterlimit="10" d="M287.5,197.5l7.2,7.2v4l9.8,0.1l-6.5,42.6c-9.3-1-17.8-2.7-25.7-4.8
		L287.5,197.5z"/>
	<text transform="matrix(0.2028 -0.9792 0.9792 0.2028 285.5803 246.0011)"><tspan x="0" y="0" fill="#FFFFFF" font-family="'HelveticaNeue-Light'" font-size="6">Villa Fresh</tspan><tspan x="0" y="7.2" fill="#FFFFFF" font-family="'HelveticaNeue-Light'" font-size="6">Italian Kitchen</tspan></text>
</g>
<g id="Kellys_Cajun_Grill">
	<polygon fill="none" stroke="#939598" stroke-miterlimit="10" points="250.4,238.8 278.6,188.6 287.5,197.5 272.3,246.6 	"/>
	<text transform="matrix(0.3323 -0.9432 0.9432 0.3323 262.575 238.9288)"><tspan x="0" y="0" fill="#FFFFFF" font-family="'HelveticaNeue-Light'" font-size="7">Kelly’s</tspan><tspan x="0" y="8.4" fill="#FFFFFF" font-family="'HelveticaNeue-Light'" font-size="7">Cajun Grill</tspan></text>
</g>
<g id="Subway">
	<path fill="none" stroke="#939598" stroke-miterlimit="10" d="M273,183l5.6,5.6l-28.2,50.2c-4.3-2-8.4-4.1-12.3-6.4L273,183z"/>
	
		<text transform="matrix(0.5094 -0.8605 0.8605 0.5094 249.5153 232.1694)" fill="#FFFFFF" font-family="'HelveticaNeue-Light'" font-size="7">Subway</text>
</g>
<g id="Texas_BBQ">
	<polygon fill="none" stroke="#939598" stroke-miterlimit="10" points="221.1,220.3 263.7,173.7 273,183 238.1,232.4 	"/>
	
		<text transform="matrix(0.6298 -0.7767 0.7767 0.6298 234.5876 222.4968)" fill="#FFFFFF" font-family="'HelveticaNeue-Light'" font-size="7">Texas BBQ</text>
</g>
<g id="Maki_of_Japan">
	<path fill="none" stroke="#939598" stroke-miterlimit="10" d="M251.6,161.6l12.1,12.1l-42.6,46.6c-9-7.7-16.2-16.1-22-24.7
		L251.6,161.6z"/>
	<text transform="matrix(0.7613 -0.6484 0.6484 0.7613 213.2639 201.8488)"><tspan x="0" y="0" fill="#FFFFFF" font-family="'HelveticaNeue-Light'" font-size="7">Maki of</tspan><tspan x="0" y="8.4" fill="#FFFFFF" font-family="'HelveticaNeue-Light'" font-size="7">Japan</tspan></text>
</g>
<g id="McDonalds">
	<polygon fill="none" stroke="#939598" stroke-miterlimit="10" points="199.2,195.6 251.6,161.6 239.6,149.5 187,173.3 	"/>
	
		<text transform="matrix(0.8938 -0.4484 0.4484 0.8938 198.9926 182.8415)" fill="#FFFFFF" font-family="'HelveticaNeue-Light'" font-size="7">McDonald’s</text>
</g>
<g id="Popeyes_Chicken">
	<polygon fill="none" stroke="#939598" stroke-miterlimit="10" points="176,131 222,132 239.6,149.5 187,173.1 	"/>
	<text transform="matrix(0.9787 -0.2055 0.2055 0.9787 187.2663 149.5193)"><tspan x="0" y="0" fill="#FFFFFF" font-family="'HelveticaNeue-Light'" font-size="7">Popeyes</tspan><tspan x="0" y="8.4" fill="#FFFFFF" font-family="'HelveticaNeue-Light'" font-size="7">Chicken</tspan></text>
</g>
<g id="Panera_Bread">
	<polygon fill="none" stroke="#939598" stroke-miterlimit="10" points="217.4,116.7 186,87.3 163.5,122.8 176,131 217.4,131.9 	"/>
	<g>
		<text transform="matrix(1 0 0 1 177.9022 114.1719)"><tspan x="0" y="0" fill="#FFFFFF" font-family="'HelveticaNeue-Light'" font-size="7">Panera</tspan><tspan x="3.1" y="8.4" fill="#FFFFFF" font-family="'HelveticaNeue-Light'" font-size="7">Bread</tspan></text>
	</g>
</g>
<g id="Great_Wraps_and_Cheesesteaks">
	<polygon fill="none" stroke="#939598" stroke-miterlimit="10" points="185.5,88.5 185.5,64 147.5,64 147.5,119 156,119 
		163.5,122.8 	"/>
	<g>
		<text transform="matrix(0 1 -1 0 160.582 69.3679)"><tspan x="0" y="0" fill="#FFFFFF" font-family="'HelveticaNeue-Light'" font-size="7">Great Wraps &amp;</tspan><tspan x="1.9" y="8.4" fill="#FFFFFF" font-family="'HelveticaNeue-Light'" font-size="7">Cheesesteaks</tspan></text>
	</g>
</g>
<g id="Salad_Creations">
	<rect x="126" y="64" fill="none" stroke="#939598" stroke-miterlimit="10" width="21.5" height="55"/>
	<g>
		<text transform="matrix(0 1 -1 0 139.582 96.8494)"><tspan x="0" y="0" fill="#FFFFFF" font-family="'HelveticaNeue-Light'" font-size="7">Salad</tspan><tspan x="-11.8" y="8.4" fill="#FFFFFF" font-family="'HelveticaNeue-Light'" font-size="7">Creations</tspan></text>
	</g>
</g>
<g id="Harrys_Smokehouse_Burgers_and_BBQ">
	<polygon fill="none" stroke="#939598" stroke-miterlimit="10" points="119.3,427.3 55.7,427.3 55.7,374.7 52,374.7 52,348.4 
		108.7,348.4 108.7,333 113.5,333 113.5,338.5 119.3,338.5 	"/>
	<rect x="46.9" y="370.5" fill="none" width="57" height="55"/>
	<text transform="matrix(1 0 0 1 82.3911 375.503)"><tspan x="0" y="0" fill="#FFFFFF" font-family="'HelveticaNeue-Light'" font-size="7">Harry’s</tspan><tspan x="-18.2" y="8.4" fill="#FFFFFF" font-family="'HelveticaNeue-Light'" font-size="7">Smokehouse</tspan><tspan x="-15.6" y="16.8" fill="#FFFFFF" font-family="'HelveticaNeue-Light'" font-size="7">Burgers and </tspan><tspan x="7" y="25.2" fill="#FFFFFF" font-family="'HelveticaNeue-Light'" font-size="7">BBQ</tspan></text>
</g>
<g id="Auntie_Annes_Pretzels">
	<rect x="52" y="299.5" fill="none" stroke="#939598" stroke-miterlimit="10" width="56.7" height="48.9"/>
	<rect x="46.9" y="316.5" fill="none" width="57" height="20.7"/>
	<text transform="matrix(1 0 0 1 62.1685 321.503)"><tspan x="0" y="0" fill="#FFFFFF" font-family="'HelveticaNeue-Light'" font-size="7">Auntie Anne’s </tspan><tspan x="17.9" y="8.4" fill="#FFFFFF" font-family="'HelveticaNeue-Light'" font-size="7">Pretzels</tspan></text>
</g>
<g id="Stars_and_Stripes">
	<rect x="52" y="270.1" fill="none" stroke="#939598" stroke-miterlimit="10" width="56.7" height="29.5"/>
	<rect x="46.9" y="280.5" fill="none" width="57" height="20.7"/>
	<text transform="matrix(1 0 0 1 59.0601 285.503)" fill="#FFFFFF" font-family="'HelveticaNeue-Light'" font-size="7">Stars &amp; Stripes</text>
</g>
<g id="One_Stop_News">
	<rect x="52" y="240.6" fill="none" stroke="#939598" stroke-miterlimit="10" width="56.7" height="29.5"/>
	<rect x="46.9" y="251.5" fill="none" width="57" height="20.7"/>
	<text transform="matrix(1 0 0 1 55.938 256.503)" fill="#FFFFFF" font-family="'HelveticaNeue-Light'" font-size="7">One Stop News</text>
</g>
<g id="Bose">
	<rect x="52" y="222.3" fill="none" stroke="#939598" stroke-miterlimit="10" width="56.7" height="18.3"/>
	<text transform="matrix(1 0 0 1 88.3553 233.1714)" fill="#FFFFFF" font-family="'HelveticaNeue-Light'" font-size="7">Bose</text>
</g>
<g id="Lush">
	<rect x="52" y="204.1" fill="none" stroke="#939598" stroke-miterlimit="10" width="56.7" height="18.3"/>
	<text transform="matrix(1 0 0 1 89.272 215.1714)" fill="#FFFFFF" font-family="'HelveticaNeue-Light'" font-size="7">Lush</text>
</g>
<g id="Game_Stop">
	<rect x="52" y="185.8" fill="none" stroke="#939598" stroke-miterlimit="10" width="56.7" height="18.3"/>
	<text transform="matrix(1 0 0 1 71.2397 197.1714)" fill="#FFFFFF" font-family="'HelveticaNeue-Light'" font-size="7">GameStop</text>
</g>
<g id="Bubbles_Haircutters">
	<rect x="52" y="161.6" fill="none" stroke="#939598" stroke-miterlimit="10" width="56.7" height="24.2"/>
	<text transform="matrix(1 0 0 1 79.1567 171.1714)"><tspan x="0" y="0" fill="#FFFFFF" font-family="'HelveticaNeue-Light'" font-size="7">Bubbles</tspan><tspan x="-8" y="8.4" fill="#FFFFFF" font-family="'HelveticaNeue-Light'" font-size="7">Haircutters</tspan></text>
</g>
<g id="The_Sweet_Factory">
	<rect x="52" y="137.4" fill="none" stroke="#939598" stroke-miterlimit="10" width="56.7" height="24.2"/>
	<text transform="matrix(1 0 0 1 71.7505 147.1714)"><tspan x="0" y="0" fill="#FFFFFF" font-family="'HelveticaNeue-Light'" font-size="7">The Sweet</tspan><tspan x="9.7" y="8.4" fill="#FFFFFF" font-family="'HelveticaNeue-Light'" font-size="7">Factory</tspan></text>
</g>
<g id="Capital_One_Bank">
	<rect x="52" y="108.1" fill="none" stroke="#939598" stroke-miterlimit="10" width="56.7" height="29.3"/>
	<text transform="matrix(1 0 0 1 83.0415 121.1715)"><tspan x="0" y="0" fill="#FFFFFF" font-family="'HelveticaNeue-Light'" font-size="7">Capital</tspan><tspan x="-9.2" y="8.4" fill="#FFFFFF" font-family="'HelveticaNeue-Light'" font-size="7">One Bank</tspan></text>
</g>
<g id="Modern_Day_Spa">
	<rect x="52" y="31.3" fill="none" stroke="#939598" stroke-miterlimit="10" width="56.7" height="51.3"/>
	<g>
		<text transform="matrix(1 0 0 1 80.662 54.1715)"><tspan x="0" y="0" fill="#FFFFFF" font-family="'HelveticaNeue-Light'" font-size="7">Modern</tspan><tspan x="-2.4" y="8.4" fill="#FFFFFF" font-family="'HelveticaNeue-Light'" font-size="7">Day Spa</tspan></text>
	</g>
	<rect x="32" y="501.9" fill="none" width="570.1" height="180"/>
	<text transform="matrix(1 0 0 1 32.025 552.3216)" fill="#FFFFFF" font-family="'BebasNeueBold'" font-size="42">Metro Level</text>
</g>
</svg>
