<?xml version="1.0" encoding="utf-8"?>
<!-- Generator: Adobe Illustrator 18.1.1, SVG Export Plug-In . SVG Version: 6.00 Build 0)  -->
<svg version="1.1" xmlns="http://www.w3.org/2000/svg" xmlns:xlink="http://www.w3.org/1999/xlink" x="0px" y="0px"
	 viewBox="0 0 1026 490" enable-background="new 0 0 1026 490" xml:space="preserve">
<g id="_x31_">
	<rect fill="#414042" width="1026" height="490"/>
	<rect x="26.3" y="415.9" fill="none" width="570.1" height="180"/>
	<text transform="matrix(1 0 0 1 26.3026 466.2516)" fill="#FFFFFF" font-family="'BebasNeueBold'" font-size="72">THird Level</text>
	<path fill="none" stroke="#000000" stroke-miterlimit="10" d="M505.1,105.5"/>
	<path fill="none" stroke="#000000" stroke-miterlimit="10" d="M171.5,227.3"/>
	<path fill="none" stroke="#000000" stroke-miterlimit="10" d="M429,223.4"/>
	<path fill="none" stroke="#000000" stroke-miterlimit="10" d="M126.7,227.3"/>
	<path fill="none" stroke="#000000" stroke-miterlimit="10" d="M230.2,117.8"/>
	<path fill="none" stroke="#000000" stroke-miterlimit="10" d="M228.5,118.4"/>
	<path fill="none" stroke="#000000" stroke-width="2" stroke-miterlimit="10" d="M669.2,125.2"/>
	<polygon fill="none" stroke="#939598" stroke-miterlimit="10" points="576.9,181.1 576.9,189.1 588.2,200.9 598.2,200.9 
		621.2,179.5 621.2,170.1 610.2,158.5 600.6,158.5 	"/>
</g>
<g id="radioshack">
	<rect x="73" y="170.5" fill="none" stroke="#939598" stroke-miterlimit="10" width="28.2" height="56.8"/>
	<rect x="75.5" y="177.7" fill="none" width="13.9" height="63.7"/>
	<text transform="matrix(0 1 -1 0 84.4795 177.6732)" fill="#FFFFFF" font-family="'HelveticaNeue-Light'" font-size="7">Radioshack</text>
</g>
<g id="royal_jewelers">
	<path fill="none" stroke="#939598" stroke-miterlimit="10" d="M126.7,227.3h-25.5v-56.8l1.5,0h16.4c0,0,7.7,8.6,13.8,10.9v2.5
		C132.1,197.4,126.7,227.3,126.7,227.3"/>
	<rect x="106.4" y="180.6" fill="none" width="13.9" height="63.7"/>
	<text transform="matrix(0 1 -1 0 115.2979 180.5531)"><tspan x="0" y="0" fill="#FFFFFF" font-family="'HelveticaNeue-Light'" font-size="7">Royal</tspan><tspan x="0" y="8.4" fill="#FFFFFF" font-family="'HelveticaNeue-Light'" font-size="7">Jewelers</tspan></text>
</g>
<g id="myeyedr">
	<path fill="none" stroke="#939598" stroke-miterlimit="10" d="M169.1,181.9l5.5,45.5h42.8v-56.8c0,0-21.8,0-35.3,0
		C182.1,170.5,175.8,179.1,169.1,181.9z"/>
	<rect x="186.3" y="177.7" fill="none" width="13.9" height="63.7"/>
	<text transform="matrix(0 1 -1 0 195.25 177.6732)" fill="#FFFFFF" font-family="'HelveticaNeue-Light'" font-size="7">myeyeDr.</text>
</g>
<g id="kids_foot_locker">
	<rect x="217.4" y="170.5" fill="none" stroke="#939598" stroke-miterlimit="10" width="49.5" height="56.8"/>
	<rect x="233" y="177.7" fill="none" width="13.9" height="63.7"/>
	<text transform="matrix(0 1 -1 0 241.8799 177.6732)"><tspan x="0" y="0" fill="#FFFFFF" font-family="'HelveticaNeue-Light'" font-size="7">Kids Foot</tspan><tspan x="0" y="8.4" fill="#FFFFFF" font-family="'HelveticaNeue-Light'" font-size="7">Locker</tspan></text>
</g>
<g id="the_body_shop">
	<rect x="266.9" y="170.5" fill="none" stroke="#939598" stroke-miterlimit="10" width="51.5" height="56.8"/>
	<rect x="284.6" y="178.8" fill="none" width="13.9" height="63.7"/>
	<text transform="matrix(0 1 -1 0 293.5215 178.8031)"><tspan x="0" y="0" fill="#FFFFFF" font-family="'HelveticaNeue-Light'" font-size="7">The Body</tspan><tspan x="0" y="8.4" fill="#FFFFFF" font-family="'HelveticaNeue-Light'" font-size="7">Shop</tspan></text>
</g>
<g id="american_greetings">
	<rect x="318.4" y="170.5" fill="none" stroke="#939598" stroke-miterlimit="10" width="33.5" height="56.8"/>
	<rect x="328.2" y="178.8" fill="none" width="13.9" height="63.7"/>
	<text transform="matrix(0 1 -1 0 337.1553 178.8031)"><tspan x="0" y="0" fill="#FFFFFF" font-family="'HelveticaNeue-Light'" font-size="7">American</tspan><tspan x="0" y="8.4" fill="#FFFFFF" font-family="'HelveticaNeue-Light'" font-size="7">Greetings</tspan></text>
</g>
<g id="sunglass_hut">
	<rect x="351.9" y="170.5" fill="none" stroke="#939598" stroke-miterlimit="10" width="35.9" height="56.8"/>
	<rect x="363" y="179.8" fill="none" width="13.9" height="63.7"/>
	<text transform="matrix(0 1 -1 0 371.8799 179.8031)"><tspan x="0" y="0" fill="#FFFFFF" font-family="'HelveticaNeue-Light'" font-size="7">Sunglass</tspan><tspan x="0" y="8.4" fill="#FFFFFF" font-family="'HelveticaNeue-Light'" font-size="7">Hut</tspan></text>
</g>
<g id="helzberg_diamonds">
	<polygon fill="none" stroke="#939598" stroke-miterlimit="10" points="457.5,227.3 387.9,227.3 387.9,170.5 448.5,170.5 
		448.5,176.5 457.5,176.5 	"/>
	<rect x="414" y="179.8" fill="none" width="13.9" height="63.7"/>
	<text transform="matrix(0 1 -1 0 422.9375 179.8031)"><tspan x="0" y="0" fill="#FFFFFF" font-family="'HelveticaNeue-Light'" font-size="7">Helzberg</tspan><tspan x="0" y="8.4" fill="#FFFFFF" font-family="'HelveticaNeue-Light'" font-size="7">Diamonds</tspan></text>
</g>
<g id="lids">
	<rect x="404.4" y="227.3" fill="none" stroke="#939598" stroke-miterlimit="10" width="53.1" height="47"/>
	<rect x="422.7" y="246.1" fill="none" width="63.7" height="13.9"/>
	<text transform="matrix(1 0 0 1 422.7007 251.0995)" fill="#FFFFFF" font-family="'HelveticaNeue-Light'" font-size="7">Lids</text>
</g>
<g id="backrach">
	<rect x="404.4" y="274.4" fill="none" stroke="#939598" stroke-miterlimit="10" width="53.1" height="58.8"/>
	<rect x="416.9" y="299" fill="none" width="63.7" height="13.9"/>
	<text transform="matrix(1 0 0 1 416.8878 304.0234)" fill="#FFFFFF" font-family="'HelveticaNeue-Light'" font-size="7">Backrach</text>
</g>
<g id="america">
	<polygon fill="none" stroke="#939598" stroke-miterlimit="10" points="404.4,333.1 494.8,333.1 494.8,390 461,390 461,386.9 
		404.4,386.9 	"/>
	<rect x="425.7" y="356.8" fill="none" width="63.7" height="13.9"/>
	<text transform="matrix(1 0 0 1 425.6796 361.7728)" fill="#FFFFFF" font-family="'HelveticaNeue-Light'" font-size="7">America!</text>
</g>
<g id="general_nutrition_center">
	<rect x="506.2" y="333.1" fill="none" stroke="#939598" stroke-miterlimit="10" width="32" height="56.9"/>
	<rect x="502.2" y="338.9" fill="none" width="30.6" height="63.7"/>
	<text transform="matrix(0 1 -1 0 527.7705 338.869)"><tspan x="0" y="0" fill="#FFFFFF" font-family="'HelveticaNeue-Light'" font-size="7">General</tspan><tspan x="0" y="8.4" fill="#FFFFFF" font-family="'HelveticaNeue-Light'" font-size="7">Nutrition</tspan><tspan x="0" y="16.8" fill="#FFFFFF" font-family="'HelveticaNeue-Light'" font-size="7">Center</tspan></text>
</g>
<g id="aerosoles">
	<polygon fill="none" stroke="#939598" stroke-miterlimit="10" points="550.4,362 550.7,377.1 538.2,377.1 538.2,333.1 563.2,333.1 
		563.2,340.6 568.7,349.6 568.7,362 	"/>
	<rect x="534.6" y="337.4" fill="none" width="13.9" height="63.7"/>
	<text transform="matrix(0 1 -1 0 543.5205 337.369)" fill="#FFFFFF" font-family="'HelveticaNeue-Light'" font-size="7">Aerosoles</text>
</g>
<g id="auntie_annes_pretzels">
	<polygon fill="none" stroke="#939598" stroke-miterlimit="10" points="584.2,358.4 586.9,360.8 587.2,368.4 602.7,368.4 
		602.9,383.6 607.7,383.6 607.7,392.6 617.7,392.6 617.7,333.1 590.2,333.1 590.2,341.9 584.2,351.1 	"/>
	<rect x="600.9" y="338.9" fill="none" width="13.9" height="63.7"/>
	<text transform="matrix(0 1 -1 0 609.8584 338.869)"><tspan x="0" y="0" fill="#FFFFFF" font-family="'HelveticaNeue-Light'" font-size="7">Auntie Anne’s</tspan><tspan x="0" y="8.4" fill="#FFFFFF" font-family="'HelveticaNeue-Light'" font-size="7">Pretzels</tspan></text>
</g>
<g id="motherhood_maternity">
	<rect x="617.7" y="333.1" fill="none" stroke="#000000" stroke-miterlimit="10" width="20.2" height="59.5"/>
	<rect x="620.8" y="338.9" fill="none" width="13.9" height="63.7"/>
	<text transform="matrix(0 1 -1 0 629.7705 338.869)"><tspan x="0" y="0" fill="#FFFFFF" font-family="'HelveticaNeue-Light'" font-size="7">Motherhood</tspan><tspan x="0" y="8.4" fill="#FFFFFF" font-family="'HelveticaNeue-Light'" font-size="7">Maternity</tspan></text>
</g>
<g id="destination_dc">
	<rect x="637.9" y="333.1" fill="none" stroke="#000000" stroke-miterlimit="10" width="13.2" height="59.5"/>
	<rect x="633.6" y="338.9" fill="none" width="13.9" height="63.7"/>
	<text transform="matrix(0 1 -1 0 642.5029 338.869)" fill="#FFFFFF" font-family="'HelveticaNeue-Light'" font-size="7">Destination DC</text>
</g>
<g id="claires">
	<rect x="658" y="333.1" fill="none" stroke="#939598" stroke-miterlimit="10" width="62.5" height="57.7"/>
	<rect x="678.4" y="340.4" fill="none" width="13.9" height="63.7"/>
	<text transform="matrix(0 1 -1 0 687.3604 340.369)" fill="#FFFFFF" font-family="'HelveticaNeue-Light'" font-size="7">Claire’s </text>
</g>
<g id="things_remembered">
	<polygon fill="none" stroke="#939598" stroke-miterlimit="10" points="742.7,391 742.8,425.8 760.1,425.8 760.1,333.1 720.5,333.1 
		720.5,390.9 	"/>
	<rect x="739.2" y="338.9" fill="none" width="13.9" height="63.7"/>
	<text transform="matrix(0 1 -1 0 748.1729 338.869)" fill="#FFFFFF" font-family="'HelveticaNeue-Light'" font-size="7">Things Remembered</text>
</g>
<g id="foot_locker">
	<rect x="760.1" y="333.1" fill="none" stroke="#939598" stroke-miterlimit="10" width="17.2" height="92.7"/>
	<rect x="757.6" y="339.4" fill="none" width="13.9" height="63.7"/>
	<text transform="matrix(0 1 -1 0 766.5029 339.369)" fill="#FFFFFF" font-family="'HelveticaNeue-Light'" font-size="7">Foot Locker</text>
</g>
<g id="house_of_hoops">
	<path fill="none" stroke="#939598" stroke-miterlimit="10" d="M777.2,425.8h89v-4.7H880l19.6-75.9l-1-1c-6-7.9-13.9-7.6-13.9-7.6
		h-5.3v-3.5H777.2L777.2,425.8z"/>
	<rect x="821.6" y="340.4" fill="none" width="13.9" height="63.7"/>
	<text transform="matrix(0 1 -1 0 830.5029 340.369)" fill="#FFFFFF" font-family="'HelveticaNeue-Light'" font-size="7">House of Hoops</text>
</g>
<g id="macys">
	<polygon fill="none" stroke="#939598" stroke-miterlimit="10" points="920.9,449 875.9,436.7 941,185 941.5,182.9 987.6,195.1 	"/>
	
		<rect x="870.5" y="306.5" transform="matrix(-0.2551 0.9669 -0.9669 -0.2551 1467.5479 -480.5158)" fill="none" width="96.8" height="37.1"/>
	
		<text transform="matrix(-0.2551 0.9669 -0.9669 -0.2551 936.6967 279.7223)" fill="#FFFFFF" font-family="'HelveticaNeue-Light'" font-size="18">MACY’S</text>
</g>
<g id="lens_crafters">
	<polyline fill="none" stroke="#939598" stroke-miterlimit="10" points="916.5,279.8 890.2,279.8 890.2,179.7 934.2,179.7 
		934.2,184.5 941,184.5 916.5,279.8 	"/>
	<rect x="892.2" y="202.8" fill="none" width="13.9" height="63.7"/>
	<text transform="matrix(0 1 -1 0 901.1104 228.0917)" fill="#FFFFFF" font-family="'HelveticaNeue-Light'" font-size="7">LensCrafters</text>
</g>
<g id="regis_hairstylists">
	<rect x="849.2" y="179.7" fill="none" stroke="#939598" stroke-miterlimit="10" width="41" height="100.1"/>
	<rect x="857.8" y="202" fill="none" width="13.9" height="63.7"/>
	<text transform="matrix(0 1 -1 0 866.7529 214.7106)" fill="#FFFFFF" font-family="'HelveticaNeue-Light'" font-size="7">Regis Hairstylists</text>
</g>
<g id="finish_line">
	<rect x="802.7" y="179.7" fill="none" stroke="#939598" stroke-miterlimit="10" width="46.5" height="100.1"/>
	<rect x="815" y="202.8" fill="none" width="13.9" height="63.7"/>
	<text transform="matrix(0 1 -1 0 823.8955 234.8397)" fill="#FFFFFF" font-family="'HelveticaNeue-Light'" font-size="7">Finihs Line</text>
</g>
<g id="lady_foot_locker">
	<rect x="755.9" y="179.7" fill="none" stroke="#939598" stroke-miterlimit="10" width="46.8" height="100.1"/>
	<rect x="767.4" y="203.8" fill="none" width="13.9" height="63.7"/>
	<text transform="matrix(0 1 -1 0 776.3076 214.6854)" fill="#FFFFFF" font-family="'HelveticaNeue-Light'" font-size="7">Lady Foot Locker</text>
</g>
<g id="at_and_t">
	<polygon fill="none" stroke="#939598" stroke-miterlimit="10" points="688.2,226.9 688.2,252.4 691.3,252.4 691.3,266.2 
		704.9,279.8 720.9,279.8 722.6,279.8 722.6,179.7 734.2,158.5 742.3,149 727.9,135.1 	"/>
	<rect x="701.8" y="203.4" fill="none" width="13.9" height="63.7"/>
	<text transform="matrix(0 1 -1 0 710.7529 250.6438)" fill="#FFFFFF" font-family="'HelveticaNeue-Light'" font-size="7">AT&amp;T</text>
</g>
<g id="journeys">
	<polygon fill="none" stroke="#939598" stroke-miterlimit="10" points="722.6,279.8 755.9,279.8 755.9,179.7 748.2,179.7 
		748.2,172.1 734.2,158.5 722.6,179.7 	"/>
	<rect x="728.4" y="203.4" fill="none" width="13.9" height="63.7"/>
	<text transform="matrix(0 1 -1 0 737.3076 239.759)" fill="#FFFFFF" font-family="'HelveticaNeue-Light'" font-size="7">Journeys</text>
</g>
<g id="outline">
	<rect x="806.6" y="291.1" fill="none" stroke="#FFFFFF" stroke-width="2" stroke-miterlimit="10" width="77.3" height="31"/>
	<rect x="704.9" y="291.1" fill="none" stroke="#FFFFFF" stroke-width="2" stroke-miterlimit="10" width="84.7" height="31"/>
	<rect x="214" y="129.7" fill="none" stroke="#FFFFFF" stroke-width="2" stroke-miterlimit="10" width="81.2" height="30.3"/>
	<rect x="312.6" y="129.7" fill="none" stroke="#FFFFFF" stroke-width="2" stroke-miterlimit="10" width="61" height="30.3"/>
	<rect x="391.6" y="129.7" fill="none" stroke="#FFFFFF" stroke-width="2" stroke-miterlimit="10" width="51.7" height="30.3"/>
	<circle fill="none" stroke="#FFFFFF" stroke-width="2" stroke-miterlimit="10" cx="151.2" cy="144.6" r="29"/>
	<polygon fill="none" stroke="#FFFFFF" stroke-width="2" stroke-miterlimit="10" points="536,125.2 472.3,125.2 472.3,235.3 
		485.1,235.3 485.1,258.2 479.2,258.2 479.3,294.4 490.4,294.4 490.4,290 496.2,290 496.2,294.4 496.2,313.6 535.8,313.6 535.9,308 
		555.9,308 555.9,317.6 672.6,317.6 672.6,257.7 655.5,257.7 655.5,238.5 651.5,238.5 651.3,242.2 634.4,240.4 635,236.9 
		627.3,235.5 626.7,239 611.5,233.7 612.7,230.5 606.7,227.5 604.7,230.9 590.8,222.2 592.8,219.1 587.8,214.9 585,218 574.8,209 
		577.3,206.7 571.7,200.7 569.2,203.2 559.8,192.9 562.3,190.4 558.5,184.9 555.5,186.7 548.7,174.2 552.1,172.5 549.7,166.5 
		546.2,167.9 541.2,153.5 544.5,152.2 542.5,144.9 539.2,145.7 536.3,130 539.5,129.7 539.8,125.2 	"/>
	<polygon fill="none" stroke="#FFFFFF" stroke-width="2" stroke-miterlimit="10" points="751.7,170 740.2,157.7 748.3,149.3 
		733.9,134 740.8,126.9 726,111.4 733.6,103.8 714.2,84.4 712.6,82.6 716.3,78.2 733,78.9 747.6,64.2 748.3,44.2 753,38.9 
		740.3,24.2 735.6,28.2 712.3,27.6 697.6,41.6 696.3,61.6 693.3,64.6 691.5,63 672.1,43.6 664.5,51.2 650.6,37.2 643.5,43.9 
		631.3,31 621.2,41 605.9,25.5 591.7,39 577,24.2 67,24.2 67,70.2 26.3,70.2 26.3,234.8 67,234.8 67,272.2 229,272.2 229,234.5 
		396.9,234.5 397.6,392.2 455.6,392.2 456,395.6 542.3,395.6 542.3,415.6 612,415.6 612,395.8 732.3,394.9 732.3,430.9 868.6,430.9 
		866.2,441.9 925.6,458.5 997.2,188.8 939,172.8 752.6,172.8 	"/>
</g>
<g id="verizon_wireless">
	<polygon fill="none" stroke="#939598" stroke-miterlimit="10" points="596,144.9 615.8,144.9 624,136.7 625.3,138 687.2,76.1 
		673,61.8 666.1,68.7 652.2,54.9 644.4,62.6 629.6,47.7 621.3,56 607,41.7 591.5,57.2 	"/>
	<rect x="621.2" y="82" fill="none" width="63.7" height="38.2"/>
	<text transform="matrix(1 0 0 1 621.2219 87.0158)"><tspan x="0" y="0" fill="#FFFFFF" font-family="'HelveticaNeue-Light'" font-size="7">Verizon</tspan><tspan x="0" y="8.4" fill="#FFFFFF" font-family="'HelveticaNeue-Light'" font-size="7">Wireless</tspan></text>
</g>
<g id="rockport">
	<path fill="none" stroke="#939598" stroke-miterlimit="10" d="M579.7,45.4l-5.3-5.3l-22,65.4c0,0-3.7,45.3,15.3,69.2l6.1-6.4
		L579.7,45.4z"/>
	<rect x="531.3" y="64.8" fill="none" width="38.2" height="63.7"/>
	<text transform="matrix(0 1 -1 0 564.5029 100.5551)" fill="#FFFFFF" font-family="'HelveticaNeue-Light'" font-size="7">Rockport</text>
</g>
<g id="jos_a_bank">
	<polygon fill="none" stroke="#939598" stroke-miterlimit="10" points="459.5,105.5 459.5,41 574.4,40.1 552.4,105.5 505.1,105.5 	
		"/>
	<rect x="476.8" y="35" fill="none" width="38.2" height="63.7"/>
	<text transform="matrix(0 1 -1 0 510.0811 60.1185)"><tspan x="0" y="0" fill="#FFFFFF" font-family="'HelveticaNeue-Light'" font-size="7">Jos. A. Bank</tspan><tspan x="12.1" y="8.4" fill="#FFFFFF" font-family="'HelveticaNeue-Light'" font-size="7">Clotheirs</tspan></text>
</g>
<g id="vision_works_docotors_of_optometry">
	<rect x="415.7" y="41.6" fill="none" stroke="#939598" stroke-miterlimit="10" width="36.8" height="74.3"/>
	<rect x="407.6" y="45.8" fill="none" width="38.2" height="63.7"/>
	<text transform="matrix(0 1 -1 0 440.8379 70.448)"><tspan x="0" y="0" fill="#FFFFFF" font-family="'HelveticaNeue-Light'" font-size="7">Vision Works</tspan><tspan x="7.5" y="8.4" fill="#FFFFFF" font-family="'HelveticaNeue-Light'" font-size="7">Doctors of</tspan><tspan x="6.9" y="16.8" fill="#FFFFFF" font-family="'HelveticaNeue-Light'" font-size="7">Optometry</tspan></text>
</g>
<g id="perfumania">
	<polygon fill="none" stroke="#939598" stroke-miterlimit="10" points="573.8,168.3 596,144.9 596,143 591.8,61.5 591.5,57.2 
		579.7,45.4 	"/>
	<rect x="573.8" y="78.7" fill="none" width="13.9" height="63.7"/>
	<text transform="matrix(0 1 -1 0 582.7529 108.4283)" fill="#FFFFFF" font-family="'HelveticaNeue-Light'" font-size="7">Perfumania</text>
</g>
<g id="the_children_x27_s_place">
	<rect x="374.9" y="41.3" fill="none" stroke="#939598" stroke-miterlimit="10" width="40.9" height="74.3"/>
	<rect x="388" y="45.3" fill="none" width="14.7" height="63.7"/>
	<text transform="matrix(0 1 -1 0 397.627 65.532)"><tspan x="0" y="0" fill="#FFFFFF" font-family="'HelveticaNeue-Light'" font-size="7">The Children’s</tspan><tspan x="26.8" y="8.4" fill="#FFFFFF" font-family="'HelveticaNeue-Light'" font-size="7">Place</tspan></text>
</g>
<g id="stride_rite">
	<polygon fill="none" stroke="#939598" stroke-miterlimit="10" points="342,115.6 291.6,115.6 291.6,50.3 310.4,50.3 310.3,41.6 
		342,41.3 	"/>
	<rect x="307.8" y="44.8" fill="none" width="14.7" height="63.7"/>
	<text transform="matrix(0 1 -1 0 317.5049 77.2195)" fill="#FFFFFF" font-family="'HelveticaNeue-Light'" font-size="7">Stride Rite</text>
</g>
<g id="clarks">
	<rect x="342" y="41.3" fill="none" stroke="#939598" stroke-miterlimit="10" width="32.8" height="74.3"/>
	<rect x="347.8" y="45.8" fill="none" width="14.7" height="63.7"/>
	<text transform="matrix(0 1 -1 0 357.5049 90.5388)" fill="#FFFFFF" font-family="'HelveticaNeue-Light'" font-size="7">Clarks</text>
</g>
<g id="nordstrom">
	<rect x="35" y="78.9" fill="none" stroke="#939598" stroke-miterlimit="10" width="38" height="148.4"/>
	<rect x="73" y="227.3" fill="none" stroke="#939598" stroke-miterlimit="10" width="148" height="39.6"/>
	<rect x="105" y="239" fill="none" width="96.8" height="37.1"/>
	<text transform="matrix(1 0 0 1 104.9662 251.8387)" fill="#FFFFFF" font-family="'HelveticaNeue-Light'" font-size="18">Nordstrom</text>
	<rect x="26.3" y="108.1" fill="none" width="37.1" height="96.8"/>
	<text transform="matrix(0 1 -1 0 50.5957 108.0769)" fill="#FFFFFF" font-family="'HelveticaNeue-Light'" font-size="18">Nordstrom</text>
</g>
<g id="champs_sports">
	<path fill="none" stroke="#939598" stroke-miterlimit="10" d="M116.7,116.2H82.5V41h61.6v62.6c-11.4,1.4-16.8,7.7-22.4,12.6H116.7z
		"/>
	<rect x="97.3" y="57.8" fill="none" width="14.7" height="63.7"/>
	<text transform="matrix(0 1 -1 0 107.001 57.7858)" fill="#FFFFFF" font-family="'HelveticaNeue-Light'" font-size="7">Champs Sports</text>
</g>
<g id="healthy_magic">
	<path fill="none" stroke="#939598" stroke-miterlimit="10" d="M144.2,103.6V41h54.2v75.7h-15.1
		C183.2,116.8,171.2,100.9,144.2,103.6"/>
	<rect x="165.6" y="51.9" fill="none" width="14.7" height="63.7"/>
	<text transform="matrix(0 1 -1 0 175.2246 51.941)" fill="#FFFFFF" font-family="'HelveticaNeue-Light'" font-size="7">Healthy Magic</text>
</g>
<g id="bag_n_baggage">
	<rect x="198.3" y="41" fill="none" stroke="#939598" stroke-miterlimit="10" width="14.6" height="75.7"/>
	<rect x="194.3" y="61.1" fill="none" width="14.7" height="63.7"/>
	<text transform="matrix(0 1 -1 0 203.9531 61.1191)" fill="#FFFFFF" font-family="'HelveticaNeue-Light'" font-size="7">Bag ‘n Baggage</text>
</g>
<g id="as_seen_on_tv">
	<rect x="212.9" y="41" fill="none" stroke="#939598" stroke-miterlimit="10" width="18.5" height="75.7"/>
	<rect x="211.6" y="66.1" fill="none" width="14.7" height="63.7"/>
	<text transform="matrix(0 1 -1 0 221.2656 66.0853)" fill="#FFFFFF" font-family="'HelveticaNeue-Light'" font-size="7">As Seen on TV</text>
</g>
<g id="zales_jewelers">
	<polygon fill="none" stroke="#939598" stroke-miterlimit="10" points="231.4,116.8 263.5,116.8 263.5,50.6 246,50.3 246,41 
		231.4,41 	"/>
	<rect x="239.5" y="46.6" fill="none" width="14.7" height="63.7"/>
	<text transform="matrix(0 1 -1 0 249.1719 94.3546)"><tspan x="0" y="0" fill="#FFFFFF" font-family="'HelveticaNeue-Light'" font-size="7">Zales</tspan><tspan x="-10.5" y="8.4" fill="#FFFFFF" font-family="'HelveticaNeue-Light'" font-size="7">Jewelers</tspan></text>
</g>
<g id="hollister">
	<path fill="none" stroke="#939598" stroke-miterlimit="10" d="M727.9,135.1l6.1-8.9L720,112.2l7.5-7.5L708.8,86l-68,68l1.4,1.4
		l-8.5,8.5v20.8l-27.8,27c13.2,14.2,44.5,15.2,44.5,15.2h37.8L727.9,135.1z"/>
	<rect x="665.7" y="132.5" fill="none" width="13.9" height="63.7"/>
	<text transform="matrix(0 1 -1 0 674.6025 159.4557)" fill="#FFFFFF" font-family="'HelveticaNeue-Light'" font-size="7">Hollister Co.</text>
</g>
</svg>
